<?xml version="1.0" standalone="no"?>
<!DOCTYPE svg PUBLIC "-//W3C//DTD SVG 20010904//EN"
 "http://www.w3.org/TR/2001/REC-SVG-20010904/DTD/svg10.dtd">
<svg version="1.0" xmlns="http://www.w3.org/2000/svg"
 width="440.000000pt" height="440.000000pt" viewBox="0 0 440.000000 440.000000"
 preserveAspectRatio="xMidYMid meet">
<metadata>
Created by potrace 1.14, written by Peter Selinger 2001-2017
</metadata>
<g transform="translate(0.000000,440.000000) scale(0.100000,-0.100000)"
fill="#000000" stroke="none">
<path d="M2727 4039 c-9 -6 -15 -14 -12 -19 3 -5 1 -11 -5 -15 -5 -3 -10 -2
-10 4 0 6 -7 8 -15 5 -8 -4 -13 -10 -10 -14 3 -4 -2 -13 -9 -19 -24 -20 -27 5
-5 35 14 20 11 18 -10 -6 -17 -19 -31 -38 -31 -43 0 -5 -7 -6 -16 -3 -8 3 -13
2 -10 -3 3 -4 -4 -17 -17 -27 -21 -19 -21 -19 -7 1 8 11 -1 6 -20 -11 -19 -17
-46 -38 -59 -47 -13 -8 -52 -43 -86 -76 -56 -53 -65 -58 -76 -44 -10 11 -25
14 -60 10 -40 -5 -47 -3 -44 11 4 26 -4 33 -25 22 -14 -8 -19 -5 -23 11 -5 18
-8 19 -29 8 -39 -22 -67 -20 -84 7 -15 22 -42 25 -28 2 3 -5 -8 -2 -26 7 -17
9 -39 14 -47 11 -9 -4 -17 1 -20 13 -6 23 -39 34 -65 20 -11 -6 -18 -6 -18 0
0 15 -29 21 -55 11 -15 -6 -25 -6 -25 0 0 25 -32 39 -79 35 -41 -3 -50 -1 -54
14 -6 23 -66 34 -74 14 -6 -16 -56 -13 -91 6 -29 15 -87 15 -147 -1 -48 -13
-51 -12 -71 11 -15 17 -26 22 -42 17 -12 -4 -20 -12 -17 -17 4 -5 1 -9 -4 -9
-6 0 -11 7 -11 15 0 8 -8 15 -17 15 -10 0 -32 9 -49 19 -23 14 -35 16 -43 8
-8 -8 -11 -7 -11 3 0 9 -5 8 -20 -5 -18 -16 -20 -16 -20 -2 0 75 -298 -152
-483 -368 -95 -111 -143 -176 -119 -161 6 3 13 2 17 -4 3 -5 18 -10 33 -10 20
0 23 -3 14 -12 -9 -9 -17 -9 -36 1 -19 11 -28 11 -47 0 l-24 -13 25 -7 c14 -4
42 -7 62 -8 24 -1 41 -7 47 -18 8 -13 13 -15 18 -6 6 8 21 9 56 1 53 -11 63
-21 17 -16 -19 2 -34 -3 -40 -12 -5 -8 -12 -11 -15 -8 -4 4 -17 3 -30 -2 -14
-5 -26 -5 -33 2 -8 8 -15 8 -27 -2 -21 -17 -20 -44 2 -36 15 6 15 5 -1 -13
-11 -12 -14 -21 -7 -26 16 -9 13 -28 -3 -22 -20 8 -41 -19 -29 -35 11 -15 11
-38 1 -38 -5 0 -15 0 -23 0 -8 0 -15 5 -15 11 0 6 6 9 13 6 9 -3 13 5 13 30 0
19 6 38 14 43 12 7 12 10 -3 16 -9 3 -17 12 -17 20 0 8 -6 11 -17 7 -15 -5
-16 -4 -5 8 11 11 16 11 35 0 20 -13 21 -13 8 3 -13 15 -13 19 0 27 9 5 10 9
2 9 -6 0 -15 -5 -18 -10 -9 -15 -36 8 -34 29 3 34 -2 35 -21 3 -25 -41 -25
-41 3 -35 12 3 19 3 16 0 -3 -4 -16 -8 -30 -11 -13 -2 -23 -9 -21 -15 1 -6 -3
-11 -10 -11 -9 0 -9 -3 0 -12 15 -15 16 -42 2 -33 -6 4 -8 11 -5 16 4 5 2 9
-4 9 -10 0 -31 -31 -31 -46 0 -3 15 -4 33 -1 17 3 26 3 19 0 -10 -4 -10 -8 -1
-19 8 -10 9 -18 2 -25 -12 -12 -53 -20 -53 -10 0 14 -29 8 -35 -6 -5 -15 17
-43 34 -43 6 0 11 5 11 12 0 6 8 4 19 -6 10 -9 25 -14 34 -10 9 3 30 1 46 -4
21 -8 31 -7 33 0 5 14 48 21 48 9 0 -5 -6 -11 -12 -14 -25 -9 -1 -16 65 -20
62 -3 68 -2 93 24 15 16 30 26 34 24 4 -3 6 9 5 26 -2 26 0 30 16 26 10 -3 18
-2 17 2 -3 23 5 38 28 48 22 10 25 10 20 -3 -3 -8 -2 -12 4 -9 5 3 7 21 5 40
-4 25 0 37 13 44 13 8 14 11 2 11 -12 0 -11 4 4 15 10 8 22 12 26 10 4 -2 22
11 40 30 29 30 31 36 19 51 -13 15 -11 17 17 12 24 -3 31 -1 27 9 -4 9 0 11
10 7 9 -3 26 1 39 10 12 9 32 16 43 17 17 1 16 2 -5 9 -22 7 -19 8 15 8 22 0
60 5 85 11 25 5 65 10 89 11 47 0 53 -8 8 -12 -28 -2 -35 -13 -14 -21 6 -3 2
-6 -10 -6 -16 -1 -21 3 -17 14 4 10 0 15 -11 15 -9 0 -13 -4 -10 -10 4 -6 -6
-10 -22 -10 -45 0 -58 -13 -36 -35 17 -18 17 -19 0 -12 -10 4 -28 7 -38 7 -11
0 -17 5 -14 10 3 6 -1 10 -9 10 -8 0 -18 -4 -21 -10 -3 -5 0 -10 7 -10 9 0 9
-3 -2 -10 -20 -13 -33 -12 -24 2 4 7 3 8 -5 4 -6 -4 -8 -12 -5 -18 4 -7 2 -8
-5 -4 -12 8 -41 -16 -41 -33 0 -6 -8 -11 -18 -11 -19 0 -42 -18 -42 -32 0 -4
7 -8 15 -8 8 0 15 -4 15 -10 0 -5 -6 -7 -13 -4 -8 3 -20 -3 -28 -12 -13 -15
-11 -16 11 -10 14 4 37 16 52 27 15 10 35 19 45 19 10 0 36 9 58 19 37 18 38
19 13 20 -14 1 -28 -4 -30 -10 -2 -6 -11 -3 -24 8 -10 10 -15 15 -10 11 16
-13 29 -9 22 7 -9 25 26 35 95 25 35 -5 87 -8 114 -5 42 3 45 3 15 -4 -32 -8
-33 -8 -7 -10 15 0 27 -6 27 -12 0 -7 9 -9 23 -6 12 4 48 3 80 -2 83 -11 80 1
-5 20 -40 10 -63 17 -51 18 24 1 103 -16 140 -30 29 -11 36 0 16 25 -17 19
-17 20 -1 7 10 -7 28 -11 40 -8 26 7 46 -7 67 -43 13 -22 13 -24 -1 -12 -13
10 -17 10 -21 -2 -4 -9 -2 -18 3 -21 16 -10 11 -28 -4 -22 -10 4 -13 1 -9 -9
4 -11 9 -12 16 -5 15 15 27 14 27 -3 0 -26 -48 -25 -75 1 -13 14 -29 22 -35
18 -5 -3 -10 -2 -10 3 0 6 -7 13 -16 16 -8 3 -12 2 -9 -4 3 -6 -1 -7 -9 -4 -9
3 -14 10 -11 14 7 12 -27 17 -55 9 -14 -4 -18 -7 -9 -8 24 -2 53 -27 45 -40
-5 -8 -16 -5 -37 9 -16 12 -33 19 -38 15 -5 -3 -12 -1 -16 5 -10 16 -65 12
-65 -5 0 -8 -8 -15 -17 -15 -16 -1 -16 -2 1 -15 25 -19 36 -19 36 0 0 11 7 14
26 11 15 -3 29 -8 33 -12 3 -4 -3 -4 -14 -1 -18 7 -19 6 -3 -6 10 -8 15 -17
11 -20 -3 -4 2 -17 13 -29 19 -21 19 -21 -1 -15 -20 7 -20 7 -1 -8 31 -24 12
-27 -37 -6 l-46 20 9 -22 c4 -12 13 -21 20 -19 6 1 8 -3 4 -9 -5 -8 -17 -1
-36 22 -27 31 -29 32 -23 9 7 -23 6 -24 -7 -6 -11 14 -24 18 -51 14 -20 -2
-37 -1 -37 3 0 4 -9 5 -21 2 -12 -4 -25 0 -30 8 -7 11 -9 11 -9 1 0 -7 -8 -12
-18 -10 -11 2 -19 -1 -20 -6 -1 -15 -26 -26 -33 -14 -8 13 -99 -28 -99 -44 0
-6 11 -3 24 6 25 16 56 13 56 -6 0 -5 5 -6 11 -2 8 4 4 11 -11 19 -19 10 -20
13 -6 18 8 3 18 2 21 -3 3 -5 12 -7 19 -4 7 3 16 -2 20 -11 3 -9 10 -14 15
-11 5 4 21 2 36 -4 20 -8 27 -7 32 5 4 12 9 13 18 5 9 -8 15 -8 20 0 3 5 16
10 28 9 21 0 21 -1 2 -8 -19 -8 -18 -9 5 -13 22 -5 23 -5 3 -7 -31 -2 -84 -84
-74 -116 11 -37 10 -47 -4 -35 -10 8 -15 8 -21 -2 -10 -15 -13 -148 -3 -148
13 0 15 -79 2 -84 -7 -3 -10 1 -6 10 3 8 2 26 -2 41 -5 21 -8 24 -15 13 -6 -9
-5 -17 2 -21 9 -6 9 -14 0 -31 l-13 -23 5 23 c2 12 0 22 -6 22 -6 0 -7 -28 -2
-77 4 -43 7 -87 6 -98 -1 -11 8 -35 18 -53 25 -42 26 -56 1 -19 -10 16 -20 24
-22 18 -3 -7 -9 8 -15 33 -5 25 -6 43 -2 40 11 -7 10 78 -2 96 -7 11 -9 1 -7
-32 2 -39 0 -46 -10 -35 -10 10 -11 25 -4 60 4 25 5 44 1 42 -4 -3 -10 -23
-14 -45 -3 -23 -10 -38 -15 -35 -5 3 -12 -1 -15 -7 -3 -7 -3 19 0 57 3 51 2
66 -6 55 -8 -11 -9 -2 -7 35 3 28 2 38 0 23 -7 -46 -18 -32 -16 20 2 44 1 45
-9 20 -7 -16 -18 -28 -25 -28 -7 0 -13 -5 -13 -12 0 -6 -2 -9 -5 -6 -3 2 0 19
6 37 9 27 9 35 -2 42 -11 7 -11 9 3 9 11 0 18 12 23 43 4 23 12 49 17 57 10
16 2 -47 -9 -77 -5 -13 -3 -13 15 -4 19 10 32 34 37 71 5 33 18 59 26 54 5 -3
9 0 9 6 0 6 5 8 13 4 8 -5 7 -2 -2 9 -9 11 -18 14 -25 8 -6 -5 -24 -7 -41 -5
-18 2 -25 0 -17 -5 8 -5 13 -11 13 -15 -2 -16 0 -18 13 -7 12 10 14 9 11 -6
-3 -21 -24 -19 -40 4 -25 33 -109 -20 -169 -107 -17 -23 -17 -24 -11 -3 5 18
3 22 -10 17 -9 -4 -19 -19 -22 -35 -5 -28 -30 -57 -42 -51 -3 2 -7 -2 -9 -10
-2 -9 0 -8 8 2 9 12 10 9 6 -15 -6 -27 -5 -28 6 -10 7 11 20 19 28 19 8 -1 22
-2 31 -3 12 -1 14 -9 11 -32 -3 -17 -8 -26 -11 -20 -5 7 -12 2 -21 -13 -7 -14
-18 -22 -24 -19 -6 3 -8 3 -4 -1 4 -5 -2 -25 -13 -44 -22 -42 -26 -65 -6 -37
13 16 14 15 9 -14 -3 -23 -7 -29 -13 -20 -7 11 -9 10 -9 -3 0 -10 -4 -18 -9
-18 -15 0 3 -139 22 -175 6 -11 10 -23 9 -28 -1 -4 16 -42 39 -83 22 -42 38
-78 35 -82 -3 -3 -7 -3 -8 -1 -14 23 -88 180 -94 199 -8 24 -8 24 -15 -10 -6
-36 -7 -33 -12 202 -2 85 -17 140 -17 62 0 -40 -29 -100 -30 -61 0 9 5 17 10
17 6 0 10 17 10 38 0 21 5 43 10 48 6 6 12 25 15 44 2 18 9 38 14 43 6 6 11
19 11 29 0 10 4 18 8 18 5 0 16 15 24 34 9 18 31 50 49 70 17 20 29 39 25 43
-9 9 15 34 27 26 6 -3 7 -1 3 5 -4 7 -4 12 1 12 4 0 22 12 38 26 26 22 27 23
5 12 -14 -7 -28 -13 -32 -14 -5 -1 -11 -3 -15 -4 -5 -1 -11 -2 -16 -1 -4 0 -6
-2 -6 -6 3 -18 -1 -33 -8 -31 -7 2 -22 -5 -54 -24 -3 -1 -13 3 -22 10 -12 10
-17 10 -23 1 -4 -7 -3 -9 3 -6 13 8 46 -27 36 -38 -5 -4 -1 -6 7 -3 8 3 14 14
13 24 -1 10 0 13 3 6 3 -6 11 -9 17 -5 6 4 -6 -14 -28 -40 -21 -26 -41 -44
-43 -42 -3 2 1 12 8 21 12 13 11 17 -1 26 -11 8 -11 9 3 4 12 -3 15 -1 11 10
-5 12 -10 11 -30 -8 -45 -41 -80 -101 -108 -186 -15 -45 -32 -85 -36 -88 -5
-3 -4 7 1 21 13 33 13 48 0 40 -6 -4 -7 1 -3 11 5 13 3 15 -7 9 -9 -6 -11 -4
-5 5 6 10 11 10 20 -4 11 -14 14 -11 23 23 8 34 7 41 -7 44 -11 3 -8 5 7 6 24
1 29 15 10 27 -6 4 -14 2 -16 -4 -2 -7 -8 -10 -13 -6 -9 5 -13 -8 -10 -32 2
-16 -56 -67 -63 -55 -4 5 7 18 24 27 16 10 30 22 30 26 0 4 -16 -2 -35 -13
-24 -14 -35 -17 -35 -8 0 7 -3 10 -6 7 -3 -4 -1 -15 5 -26 8 -15 7 -23 -4 -32
-22 -18 -18 -36 3 -19 10 8 6 3 -9 -11 -14 -14 -32 -36 -38 -50 -11 -22 -10
-23 2 -8 12 16 16 16 33 3 13 -11 14 -13 3 -10 -9 3 -22 -1 -29 -9 -7 -9 -17
-13 -23 -9 -5 3 -7 1 -3 -5 3 -6 2 -22 -3 -35 -7 -18 -7 -27 2 -31 9 -3 9 -5
-1 -5 -19 -1 -26 27 -11 46 8 10 9 14 2 10 -11 -7 -43 -63 -43 -75 0 -3 6 2
13 13 9 11 16 14 21 7 10 -17 -5 -42 -25 -42 -13 0 -19 -7 -19 -22 0 -19 -1
-20 -17 -5 -22 19 -51 25 -54 12 -2 -5 10 -12 26 -15 22 -4 29 -11 32 -33 3
-18 0 -26 -7 -22 -13 8 -13 -5 0 -25 5 -8 10 -10 10 -4 0 7 11 14 25 16 16 4
25 1 25 -8 0 -7 -8 -11 -19 -9 -14 3 -18 -1 -14 -11 4 -10 0 -12 -13 -8 -15 6
-14 3 4 -14 14 -12 21 -26 16 -33 -5 -8 -3 -9 6 -4 8 5 11 3 8 -6 -7 -22 -38
-23 -39 -2 0 16 -1 16 -9 -2 -6 -15 -9 -16 -9 -4 -1 9 -8 16 -16 16 -11 0 -12
-4 -4 -13 8 -9 6 -11 -8 -8 -10 3 -19 14 -19 25 0 13 5 18 15 14 9 -3 12 -3 8
1 -4 4 -2 12 3 19 7 8 5 12 -5 12 -8 0 -12 -4 -10 -8 3 -4 -2 -9 -10 -13 -17
-6 -20 -43 -5 -66 7 -11 10 -11 10 -2 0 7 5 10 12 6 7 -5 5 -11 -7 -21 -18
-12 -18 -13 4 -13 12 0 20 -4 16 -10 -3 -5 -11 -7 -19 -4 -7 3 -13 -2 -13 -10
0 -8 6 -12 15 -8 10 3 13 1 8 -6 -4 -7 -15 -12 -25 -12 -15 0 -18 7 -15 35 1
19 0 35 -2 35 -11 0 -21 -46 -14 -60 9 -16 -11 -52 -26 -49 -14 3 -44 -12 -39
-20 2 -4 -2 -8 -10 -8 -8 0 -12 4 -10 8 3 4 -6 6 -20 5 -14 0 -25 -5 -25 -9 0
-5 -4 -6 -8 -3 -17 10 -8 -28 10 -46 10 -10 18 -15 18 -12 0 4 8 0 17 -7 15
-12 16 -12 8 1 -4 8 -4 12 0 7 15 -13 14 -36 -1 -30 -10 4 -12 0 -7 -13 5 -14
3 -16 -11 -11 -11 4 -15 3 -11 -4 4 -6 -2 -13 -14 -16 -37 -9 -24 -29 15 -25
35 4 37 3 30 -22 -4 -15 -2 -26 4 -26 5 0 10 -7 10 -16 0 -12 -5 -11 -20 7
-10 13 -19 19 -20 12 0 -6 4 -14 10 -18 16 -10 -1 -37 -21 -32 -11 3 -19 1
-19 -4 0 -10 7 -13 55 -24 l30 -7 -40 -18 -40 -17 37 1 c20 1 34 4 31 9 -2 4
3 7 11 7 19 0 20 -7 5 -49 -18 -51 -3 -117 37 -160 18 -21 31 -41 27 -45 -12
-11 -23 -6 -24 12 0 15 -1 15 -8 -2 -5 -14 -10 -16 -15 -8 -4 7 -12 12 -17 12
-6 0 -7 -4 -4 -10 3 -5 1 -10 -5 -10 -6 0 -8 -4 -5 -10 3 -5 -2 -10 -12 -11
-10 -1 9 -7 42 -14 l60 -12 -53 -2 c-29 0 -51 -5 -48 -10 3 -5 26 -8 51 -7 25
1 45 -2 45 -5 0 -4 -21 -12 -47 -20 l-48 -13 40 -7 c44 -8 113 -5 122 5 16 16
24 4 9 -13 -16 -18 -16 -20 0 -29 15 -9 15 -12 -6 -51 -13 -22 -26 -41 -29
-41 -4 0 -18 -11 -33 -24 -14 -14 -28 -22 -31 -19 -3 3 -3 -5 0 -16 5 -21 7
-21 30 -6 31 20 37 15 28 -24 -8 -36 -12 -38 -32 -13 -13 15 -13 14 0 -8 8
-14 18 -25 22 -25 5 0 15 23 24 50 9 28 21 49 26 48 6 -1 18 6 28 14 19 18 23
4 5 -17 -7 -8 -1 -5 13 8 31 27 35 27 42 1 3 -12 10 -18 16 -14 11 6 4 -21
-10 -40 -4 -5 -8 -23 -10 -40 -2 -16 -7 -35 -11 -41 -4 -6 -4 -30 1 -55 8 -40
9 -41 10 -11 1 19 5 31 11 27 12 -8 12 -7 1 32 -7 24 -6 31 4 27 12 -5 30 50
20 65 -2 4 2 8 10 8 9 0 15 -10 15 -23 0 -12 4 -24 10 -26 6 -2 6 -8 0 -18 -8
-13 -10 -13 -10 2 0 9 -4 20 -10 23 -6 4 -7 -1 -3 -10 3 -10 2 -20 -4 -24 -11
-7 -5 -101 7 -101 5 0 6 21 3 46 -4 37 -2 46 8 42 8 -3 15 -17 17 -31 2 -15 6
-25 10 -23 4 2 8 -14 9 -37 2 -22 7 -45 13 -51 5 -5 10 -37 10 -70 0 -32 2
-57 4 -55 8 7 8 143 1 169 l-7 25 26 -27 c25 -26 26 -31 16 -67 -7 -27 -7 -48
0 -66 7 -18 7 -33 0 -46 -6 -11 -8 -25 -4 -31 4 -6 3 -8 -3 -5 -11 7 -73 -49
-73 -65 0 -6 9 0 20 13 22 27 27 13 6 -16 -12 -17 -9 -25 32 -80 26 -33 84
-99 131 -148 81 -84 86 -87 128 -87 74 0 130 -20 178 -62 81 -72 77 -82 -17
-43 -82 35 -125 44 -113 25 8 -14 185 -146 255 -191 107 -69 426 -219 465
-219 4 0 -9 19 -27 42 -37 47 -58 89 -58 116 0 10 -9 35 -20 57 -16 32 -20 59
-20 146 0 59 7 143 15 186 9 43 22 120 29 170 11 73 22 104 47 143 18 27 36
50 40 50 4 0 31 -11 61 -25 62 -29 121 -32 199 -9 107 31 152 90 164 214 5 44
29 124 77 250 113 299 110 293 119 278 12 -19 11 -36 -1 -18 -8 11 -9 7 -5
-15 4 -22 3 -25 -3 -11 -8 19 -9 18 -15 -4 -3 -13 -4 -26 -2 -29 3 -2 5 2 5
10 0 12 2 12 9 0 7 -11 16 7 33 62 15 49 30 80 43 87 11 6 13 9 4 6 -24 -7
-34 113 -11 131 11 9 19 10 29 2 7 -6 11 -15 8 -19 -5 -9 35 -18 52 -13 6 2 8
13 6 24 -5 18 -2 20 22 17 16 -2 30 -8 32 -15 3 -7 -3 -10 -15 -6 -15 3 -21
-2 -24 -21 -3 -14 -1 -26 3 -26 22 0 6 -27 -22 -37 -25 -10 -29 -16 -24 -32 4
-12 2 -21 -4 -21 -6 0 -11 -4 -11 -10 0 -5 9 -10 20 -10 11 0 20 5 20 10 0 6
6 10 14 10 7 0 25 9 39 20 27 21 42 26 32 11 -3 -5 3 -11 12 -14 15 -3 14 -6
-7 -15 -14 -6 -36 -21 -50 -32 -24 -21 -24 -21 -2 -15 14 4 22 2 22 -5 0 -7 6
-10 14 -7 8 3 20 -1 27 -9 8 -10 15 -12 22 -5 11 11 47 -13 47 -31 0 -5 6 -16
13 -23 29 -33 37 -45 37 -55 0 -5 4 -10 9 -10 5 0 13 -10 17 -22 3 -13 22 -44
40 -69 19 -26 34 -51 34 -56 0 -15 47 -73 53 -66 4 3 7 -1 7 -10 0 -10 3 -17
8 -17 4 0 13 -14 21 -31 7 -16 15 -28 18 -25 9 9 71 -63 77 -90 12 -45 -47
-135 -119 -183 -77 -50 -162 -133 -205 -199 -18 -28 -36 -50 -39 -47 -4 2 -13
0 -21 -6 -12 -7 -12 -9 3 -9 11 0 17 -5 14 -12 -2 -7 -10 -12 -16 -10 -7 1 -9
-6 -6 -21 5 -19 3 -23 -13 -22 -18 1 -107 65 -123 88 -4 5 -10 3 -14 -3 -5 -8
-1 -18 11 -26 10 -7 24 -18 31 -24 7 -5 16 -10 20 -10 5 0 17 -9 26 -21 10
-11 25 -18 32 -15 24 9 24 -6 0 -107 -13 -53 -26 -145 -30 -204 -3 -60 -14
-137 -25 -173 -25 -86 -50 -194 -50 -215 0 -14 10 -15 78 -10 717 56 1309 398
1703 984 75 111 192 341 232 457 l25 70 -121 -3 c-85 -1 -110 1 -82 6 22 5 45
6 52 4 17 -7 17 9 1 26 -7 7 4 3 24 -9 29 -17 44 -20 75 -14 21 5 42 8 47 9 9
0 34 58 35 83 1 6 -5 12 -12 12 -7 0 -18 5 -24 11 -9 9 -6 16 10 30 22 18 22
18 1 19 -11 0 -31 -11 -44 -25 -13 -14 -29 -25 -36 -25 -7 0 -15 -6 -17 -12
-3 -7 -6 -3 -6 10 -1 23 -15 30 -26 12 -5 -8 -11 -8 -19 -1 -7 6 -15 9 -18 6
-8 -9 -108 -15 -108 -7 0 5 15 14 34 22 19 7 37 21 39 32 4 14 -1 18 -25 18
-29 0 -30 1 -16 22 8 12 21 24 29 27 12 4 12 2 0 -13 -12 -14 -7 -13 22 4 32
19 57 47 57 63 0 3 -7 8 -16 11 -8 3 -12 2 -9 -4 3 -6 1 -10 -4 -10 -6 0 -11
-7 -11 -15 0 -8 -3 -15 -7 -15 -5 0 -8 14 -8 30 0 17 3 30 8 30 4 0 7 9 7 20
0 24 1 24 -38 4 -22 -10 -37 -12 -49 -5 -22 11 -59 -11 -47 -30 4 -8 3 -10 -4
-5 -7 4 -18 4 -24 -1 -18 -11 -48 -14 -48 -5 0 4 9 8 19 9 22 2 63 38 53 47
-3 3 0 7 6 7 26 3 31 4 38 12 4 4 0 7 -9 7 -9 0 -19 5 -23 12 -5 8 -2 9 9 5
10 -3 17 -3 17 2 0 4 14 8 30 7 27 -1 28 -2 13 -13 -13 -10 -14 -13 -2 -13 12
0 12 -2 -1 -10 -9 -6 -10 -10 -3 -10 6 0 15 5 18 10 4 6 11 8 16 4 5 -3 30 4
55 16 48 24 55 37 10 20 -20 -7 -25 -7 -20 1 3 6 0 15 -7 20 -12 8 -12 11 1
19 23 15 61 12 75 -6 6 -9 26 -17 43 -18 29 -1 31 -2 15 -15 -16 -12 -15 -13
9 -7 25 6 26 4 22 -21 -2 -16 -6 -33 -8 -39 -4 -9 41 -12 76 -5 15 3 19 43 6
58 -11 14 -11 16 1 8 10 -6 12 -4 6 4 -4 7 -18 11 -31 8 -26 -5 -42 7 -24 18
5 3 15 15 21 27 9 17 8 19 -9 14 -15 -5 -22 0 -32 25 -7 17 -13 37 -13 45 0 7
-4 11 -9 8 -4 -3 -8 0 -8 6 0 7 -6 8 -18 1 -21 -11 -48 2 -38 18 5 7 1 9 -8 5
-9 -3 -16 -12 -16 -19 0 -21 -21 -29 -32 -14 -8 11 -9 10 -4 -3 4 -13 -2 -20
-19 -24 -14 -3 -25 -10 -25 -14 0 -4 -11 -7 -25 -6 -29 1 -31 8 -10 26 17 15
20 35 4 24 -9 -5 -10 1 -5 22 4 16 7 35 8 42 1 7 8 10 15 8 8 -3 24 5 37 19
13 14 26 22 30 18 4 -4 3 4 -2 17 -7 19 -5 28 7 37 15 11 15 12 0 13 -9 0 -27
-9 -40 -19 l-24 -20 23 6 c29 7 28 -7 -3 -30 -24 -17 -25 -17 -25 3 0 11 -4
20 -10 20 -5 0 -10 -5 -10 -11 0 -5 -4 -8 -9 -5 -10 7 -35 -44 -32 -66 2 -13
-5 -18 -23 -18 -16 0 -26 -6 -26 -15 0 -8 -6 -15 -12 -15 -9 0 -8 -4 2 -10 21
-14 28 -12 47 10 26 30 33 24 30 -27 -1 -32 -8 -54 -21 -66 -25 -22 -29 -22
-16 3 13 23 -6 36 -40 27 -11 -3 -18 -1 -14 4 3 5 13 9 22 9 13 0 14 2 3 9 -7
5 -21 7 -30 4 -9 -2 -25 3 -36 11 -11 9 -14 16 -7 16 6 0 12 7 12 15 0 8 5 15
10 15 6 0 10 4 10 9 0 5 -15 9 -34 8 -19 -1 -32 -5 -30 -9 2 -3 -10 -14 -28
-22 -21 -11 -34 -13 -38 -6 -4 7 -11 5 -20 -5 -17 -20 -1 -72 21 -67 11 3 12
1 2 -9 -16 -16 -17 -39 -2 -39 5 0 8 4 5 8 -6 10 39 52 55 52 5 0 7 5 3 12 -5
8 0 9 17 5 13 -4 31 -7 39 -7 8 -1 2 -8 -13 -16 -16 -9 -35 -13 -42 -10 -7 2
-19 -2 -25 -10 -7 -8 -9 -14 -4 -14 5 0 2 -5 -6 -10 -11 -7 -11 -10 -2 -10 7
0 10 -4 7 -10 -4 -6 1 -7 10 -3 10 3 20 1 24 -6 6 -9 15 -9 37 -1 27 9 28 9
10 -5 -11 -8 -29 -15 -40 -15 -16 0 -18 -3 -8 -9 17 -10 -13 -42 -68 -72 l-35
-19 38 6 c25 4 37 2 37 -6 0 -21 29 -41 67 -45 21 -1 40 -3 42 -4 13 -3 -37
-30 -56 -31 -13 0 -23 -4 -23 -10 0 -5 -7 -10 -15 -10 -8 0 -15 -7 -15 -16 0
-8 -4 -13 -9 -9 -6 3 -9 -4 -8 -15 1 -22 13 -27 20 -7 3 6 6 -1 6 -18 1 -41
36 -95 61 -95 13 0 20 -7 20 -18 0 -27 63 -86 165 -154 50 -33 92 -62 94 -64
12 -11 -134 -120 -259 -194 -101 -60 -362 -192 -368 -186 -3 3 -1 6 5 6 14 0
24 38 12 46 -5 3 -7 10 -4 15 3 5 -1 6 -10 2 -14 -5 -16 0 -13 23 2 23 -2 29
-22 35 -24 7 -25 7 -2 8 14 1 20 5 17 12 -4 6 -14 8 -22 5 -11 -4 -13 -2 -9 9
3 8 0 15 -6 15 -6 0 -8 3 -5 6 4 4 13 2 20 -4 10 -9 14 -8 14 3 0 8 -3 13 -5
10 -3 -3 -11 0 -19 6 -9 8 -10 15 -3 24 8 9 4 14 -13 19 -19 4 -24 12 -23 38
1 29 -2 33 -24 31 l-25 -3 24 14 c23 13 23 14 5 25 -18 11 -18 12 3 6 12 -3
24 -1 28 5 3 5 -1 10 -9 10 -19 0 -21 11 -5 27 8 8 7 13 -2 18 -8 6 -10 4 -4
-6 8 -12 6 -12 -8 0 -18 14 -16 22 17 60 l21 25 -29 -22 c-31 -24 -87 -27 -79
-5 3 7 11 13 19 13 8 0 14 7 14 16 0 14 -1 14 -16 0 -8 -9 -23 -16 -32 -16
-15 0 -15 -2 -2 -10 8 -5 11 -10 7 -10 -4 0 -3 -9 3 -21 9 -16 14 -18 26 -8 8
6 17 9 21 5 3 -3 1 -6 -6 -6 -7 0 -10 -4 -7 -8 2 -4 -8 -8 -24 -7 -15 0 -26 3
-23 7 2 5 -6 8 -19 7 -13 0 -17 -3 -11 -6 10 -3 10 -8 -1 -19 -18 -17 -30 -18
-20 -1 4 6 4 9 -1 5 -4 -4 -15 -2 -24 5 -14 11 -14 10 -2 -5 11 -15 11 -18 -1
-18 -8 0 -18 3 -22 7 -3 4 -13 8 -21 9 -12 2 -13 -2 -4 -19 9 -19 7 -19 -12 3
-21 24 -22 24 -17 3 3 -12 3 -22 -1 -21 -3 0 -17 0 -30 -1 -18 -1 -22 -5 -17
-18 4 -11 -2 -8 -14 7 -19 25 -24 37 -21 54 1 5 -5 3 -14 -4 -13 -11 -14 -10
-9 5 5 12 4 16 -4 12 -6 -4 -13 1 -15 10 -3 10 -4 -3 -2 -29 2 -30 -1 -51 -10
-58 -11 -9 -12 -7 -8 12 4 19 3 20 -7 8 -10 -12 -11 -12 -5 5 14 37 15 87 2
82 -7 -2 -11 -10 -9 -16 1 -6 -2 -11 -8 -11 -5 0 -10 4 -10 9 0 14 28 33 39
27 12 -8 41 3 41 16 0 5 -5 6 -10 3 -6 -4 -9 -1 -8 7 2 7 -3 12 -9 11 -10 -2
-10 3 -1 22 9 19 8 29 -6 49 -16 25 -15 26 19 49 34 23 34 25 17 40 -10 10
-22 14 -26 10 -4 -5 -24 -9 -44 -10 -20 -1 -48 -5 -61 -9 -24 -7 -24 -7 -8 17
9 13 36 36 59 50 24 15 42 31 41 36 -1 5 3 10 10 11 7 0 34 12 61 25 44 22 47
26 25 29 -16 2 -32 -5 -47 -20 -12 -13 -30 -22 -39 -20 -9 2 -27 -7 -40 -19
-23 -24 -77 -31 -88 -13 -4 7 -17 4 -34 -6 -37 -22 -81 -12 -81 17 0 13 4 18
12 13 7 -5 8 -3 3 7 -14 21 -13 48 1 53 8 3 16 0 20 -6 5 -7 2 -8 -6 -3 -9 5
-11 4 -6 -3 5 -8 15 -8 32 -2 20 8 25 7 21 -2 -2 -7 -11 -12 -18 -10 -8 2 -10
0 -6 -5 5 -4 14 -8 20 -8 7 0 11 -8 11 -18 -3 -36 21 -9 26 29 7 46 18 67 31
58 5 -3 17 0 26 7 13 11 18 10 32 -7 l17 -21 17 24 c23 30 45 29 59 -2 9 -21
14 -23 26 -12 13 10 15 9 9 -6 -4 -11 -3 -16 3 -12 6 3 10 15 10 27 0 16 3 18
14 9 8 -7 12 -21 9 -31 -6 -24 6 -25 62 -5 32 12 42 12 55 1 22 -19 53 -29 44
-14 -5 8 -2 9 9 5 10 -4 17 -2 17 4 0 6 7 9 15 5 8 -3 15 -1 15 5 0 6 5 7 10
4 6 -3 10 -2 10 4 0 5 -6 12 -12 14 -10 4 -10 6 -1 6 7 1 10 8 7 16 -5 11 -1
14 12 9 12 -3 15 -3 8 3 -18 13 -26 51 -13 59 9 5 10 2 6 -10 -4 -11 -3 -15 4
-10 6 3 9 17 6 30 -2 14 0 27 6 31 5 3 7 1 3 -5 -3 -6 -2 -13 2 -16 16 -10 8
34 -8 45 -12 8 -11 9 5 7 15 -2 19 2 17 15 -2 10 2 17 10 16 26 -3 39 1 33 11
-4 6 -16 8 -28 5 -12 -2 -16 -2 -9 1 6 3 10 9 7 13 -2 5 8 6 23 4 19 -3 23 -2
14 5 -8 5 -14 13 -14 18 -1 5 -3 17 -6 27 -4 15 -7 16 -13 5 -7 -10 -9 -9 -9
4 0 9 -4 20 -10 23 -6 4 -7 -1 -3 -12 6 -16 5 -16 -10 -4 -9 7 -15 17 -12 21
2 4 -14 22 -36 41 -22 19 -50 43 -61 54 -12 11 -17 13 -13 5 5 -8 -7 1 -26 20
-19 19 -41 37 -49 39 -55 13 -81 16 -127 15 -29 0 -56 -3 -59 -6 -3 -4 1 -17
9 -30 27 -41 41 -103 28 -126 -14 -27 -100 -55 -176 -59 -33 -2 -67 -3 -75 -4
-36 -2 -95 35 -84 53 3 4 0 25 -7 46 -7 20 -11 42 -9 47 2 6 5 57 6 115 3 120
12 190 28 206 23 22 55 35 61 23 4 -6 13 -8 21 -5 9 3 16 -4 20 -19 3 -14 10
-25 16 -25 5 0 6 5 2 12 -4 7 -3 8 4 4 6 -4 9 -12 7 -19 -5 -15 23 -50 54 -67
19 -10 25 -10 32 1 7 12 14 11 37 -2 20 -11 34 -13 45 -7 13 7 15 5 10 -8 -5
-14 -3 -15 14 -6 11 6 26 19 34 29 13 17 13 17 -6 3 -19 -14 -19 -14 -6 3 7 9
19 17 26 17 16 0 71 27 115 57 19 13 42 23 52 23 10 0 15 5 13 13 -3 7 9 18
27 26 18 8 39 21 46 28 7 7 24 13 37 13 29 0 43 19 24 31 -8 5 -9 9 -4 9 6 0
-1 7 -14 14 -14 8 -31 12 -38 9 -9 -4 -11 0 -7 13 4 11 4 16 0 12 -4 -3 -24 0
-44 8 l-37 15 25 -20 c14 -11 20 -21 13 -21 -7 0 -22 13 -34 30 -12 16 -26 27
-31 24 -4 -3 -8 0 -8 6 0 6 -4 9 -9 6 -5 -3 -11 1 -15 9 -4 12 -10 13 -32 3
-23 -11 -28 -9 -43 10 -10 14 -20 19 -26 13 -14 -13 -67 -17 -84 -7 -10 7 -12
5 -6 -4 6 -10 3 -12 -13 -8 -12 3 -22 3 -24 -1 -2 -5 -18 -11 -35 -14 -27 -5
-33 -3 -33 11 0 15 -2 15 -10 2 -9 -13 -10 -13 -10 0 0 9 -10 16 -21 17 -21 2
-21 1 -3 -13 13 -10 8 -10 -13 2 -18 10 -29 22 -26 27 3 6 1 7 -6 3 -6 -4 -19
-2 -27 5 -22 18 -62 19 -68 2 -4 -10 -10 -12 -19 -6 -6 5 -18 8 -24 7 -7 -1
-18 -2 -24 -3 -5 0 -8 -5 -5 -9 3 -5 -5 -8 -17 -7 -12 1 -25 -3 -29 -9 -4 -6
-7 1 -6 16 2 18 6 24 12 18 13 -13 26 -13 26 1 0 5 -4 7 -10 4 -6 -4 -10 7
-10 24 0 23 5 31 17 31 14 0 13 3 -5 16 l-23 16 23 23 c23 22 56 37 91 40 10
1 23 8 30 15 10 10 8 10 -10 1 -18 -9 -22 -9 -18 1 5 13 32 30 68 44 9 3 17
15 17 25 0 21 36 40 58 32 8 -3 10 0 6 10 -6 18 49 49 72 40 7 -3 14 0 14 7 0
6 5 8 10 5 6 -3 10 -1 10 4 0 6 -13 11 -29 11 -16 0 -34 7 -41 15 -7 8 -16 12
-21 9 -5 -3 -17 0 -28 5 -18 10 -20 23 -12 82 2 16 36 18 59 3 33 -22 92 -81
92 -93 0 -15 27 -20 40 -8 10 10 12 7 7 -10 -3 -12 0 -24 7 -26 14 -5 15 21 2
41 -4 6 -5 12 -2 12 6 0 -15 28 -41 55 -7 7 -9 15 -6 19 4 3 1 6 -5 6 -7 0
-12 7 -12 16 0 8 -4 13 -9 10 -5 -3 -14 1 -21 9 -7 8 -9 15 -4 15 5 0 3 4 -5
9 -11 7 -7 13 17 25 33 17 52 17 64 1 5 -6 8 -5 8 3 0 7 5 10 10 7 6 -4 8 -10
5 -15 -3 -5 -1 -11 3 -14 5 -3 8 9 8 27 -1 25 3 31 17 29 9 -2 20 4 23 12 3 9
11 13 16 10 6 -4 3 5 -7 19 -12 19 -13 27 -4 33 7 4 9 3 6 -3 -4 -6 1 -17 11
-24 15 -12 16 -12 5 2 -10 12 -10 18 0 29 9 10 9 11 0 6 -7 -4 -13 -2 -13 4 0
6 -4 8 -10 5 -6 -4 -7 1 -3 11 4 11 8 13 11 6 2 -7 11 -12 19 -12 13 0 13 3 3
15 -10 13 -9 15 9 15 12 0 20 4 16 9 -3 5 -1 12 4 16 6 3 8 -3 6 -15 -6 -30
27 -44 41 -18 7 14 14 17 18 9 4 -6 2 -11 -3 -11 -28 0 -6 -41 42 -80 l52 -42
-46 45 c-48 47 -50 57 -17 57 12 0 16 -4 12 -12 -5 -8 2 -9 24 -5 18 4 31 3
29 -1 -4 -12 76 -88 111 -106 38 -19 37 -34 0 -16 -22 11 -22 11 2 -9 14 -12
34 -19 44 -17 28 7 51 -8 75 -49 11 -19 18 -35 16 -35 -3 0 -14 15 -25 33 -11
17 -20 28 -20 23 0 -6 -6 -2 -13 9 -8 10 -19 15 -25 11 -16 -10 -3 -36 18 -36
11 0 30 -20 50 -52 25 -42 30 -47 27 -25 -5 30 4 35 23 12 7 -8 16 -12 21 -9
5 3 9 2 8 -3 -4 -18 13 -41 27 -36 8 3 14 0 14 -7 0 -6 -4 -8 -10 -5 -6 4 -7
-1 -3 -12 3 -10 -10 0 -31 22 -37 40 -43 33 -19 -25 11 -25 46 -62 42 -44 -4
23 3 26 23 8 13 -12 18 -13 13 -4 -5 8 -11 23 -12 34 -3 16 -1 17 12 6 8 -7
13 -16 10 -20 -3 -4 3 -14 13 -21 15 -13 16 -12 3 4 -7 9 -11 17 -7 17 4 0 -1
11 -10 25 -10 15 -12 25 -5 25 6 0 11 -5 11 -11 0 -5 4 -8 9 -4 5 3 13 0 17
-6 5 -8 3 -9 -5 -4 -10 6 -11 3 -2 -14 14 -25 23 -28 14 -3 -6 15 -5 15 10 3
9 -7 14 -17 12 -22 -3 -4 5 -13 17 -20 21 -11 22 -11 9 5 -8 9 -11 19 -9 22 6
6 48 -58 48 -72 -1 -5 -7 2 -15 16 l-14 25 1 -27 c2 -19 7 -25 19 -23 28 6 60
-6 52 -19 -4 -6 4 -4 17 5 23 15 38 23 90 49 11 6 25 10 31 10 6 0 17 7 25 15
9 8 24 15 34 15 15 0 10 15 -34 98 -83 153 -207 334 -228 329 -6 -1 -13 5 -15
13 -4 13 -3 13 6 0 6 -8 11 -11 11 -6 0 4 -28 39 -61 78 -62 69 -99 99 -99 78
0 -5 8 -10 17 -10 9 0 14 -3 10 -6 -3 -3 10 -19 29 -36 31 -27 39 -58 11 -41
-7 4 1 -10 17 -32 23 -29 25 -37 12 -32 -17 7 -18 6 -2 -17 20 -32 20 -40 0
-32 -14 5 -15 4 -4 -8 16 -20 31 -81 32 -128 0 -21 4 -36 7 -33 4 2 8 -2 8
-10 0 -8 -4 -12 -9 -9 -12 8 -10 -3 7 -36 9 -17 13 -30 9 -30 -3 0 2 -12 12
-27 14 -22 14 -25 2 -15 -11 9 -18 10 -23 2 -3 -5 -1 -10 5 -10 7 0 10 -6 7
-12 -2 -7 -1 -22 3 -33 12 -32 -30 -27 -48 6 -9 14 -29 30 -46 35 -19 5 -32
17 -34 29 -3 18 -2 18 13 -2 18 -25 40 -30 51 -11 5 7 3 8 -6 3 -8 -5 -11 -4
-6 3 3 6 -7 25 -24 43 -22 25 -27 36 -18 46 7 9 7 17 -1 27 -9 11 -6 13 19 10
l30 -4 -24 37 c-28 41 -28 50 3 33 25 -13 28 2 7 39 -7 13 -11 32 -8 43 2 10
-2 26 -9 35 -10 12 -10 14 -1 9 28 -17 9 11 -21 30 -70 45 -88 55 -95 50 -4
-3 -14 0 -22 6 -12 8 -12 9 3 4 9 -3 17 -1 17 5 0 7 -10 9 -24 5 -14 -3 -28
-2 -31 4 -3 5 -11 10 -18 10 -6 0 5 -16 24 -37 l34 -36 -40 23 -40 23 35 -32
c19 -18 29 -29 22 -26 -8 4 -28 9 -45 11 -18 2 -38 5 -44 6 -7 1 -13 4 -13 8
0 3 -9 6 -21 6 -19 0 -19 -1 -3 -13 10 -7 24 -13 31 -13 7 0 13 -5 13 -10 0
-6 11 -8 25 -4 19 5 25 2 25 -10 0 -9 8 -16 18 -16 14 0 15 2 2 10 -8 5 -12
12 -8 15 3 4 12 0 19 -8 10 -11 21 -12 39 -6 22 8 23 8 7 -5 -15 -12 -15 -15
-2 -26 12 -10 15 -10 15 1 0 12 2 12 9 0 5 -7 14 -10 20 -7 6 4 9 11 7 15 -3
4 4 7 14 8 11 1 22 -2 25 -8 3 -5 -1 -6 -9 -3 -16 6 -36 -23 -29 -43 6 -17
-34 -37 -43 -21 -5 7 -3 8 6 3 8 -5 11 -3 9 4 -3 7 -7 11 -10 9 -8 -4 -39 28
-39 41 0 6 -12 11 -27 11 -21 0 -24 -3 -13 -9 8 -6 17 -8 21 -6 9 6 31 -38 27
-56 -2 -8 3 -13 12 -11 8 2 12 1 8 -3 -4 -4 2 -17 13 -29 65 -73 81 -96 64
-96 -10 0 -13 -5 -9 -12 4 -7 3 -8 -5 -4 -6 4 -9 12 -6 17 4 5 0 9 -7 9 -9 0
-9 3 2 10 9 6 10 10 3 10 -6 0 -15 9 -18 20 -4 11 -11 17 -17 14 -6 -4 -8 -2
-5 3 4 6 -9 25 -28 41 -21 19 -29 33 -22 36 9 3 8 5 -1 5 -7 1 -10 6 -7 11 4
6 3 9 -2 8 -16 -4 -118 14 -129 23 -15 12 -35 8 -52 -11 -8 -8 -11 -9 -7 -3 4
9 1 11 -9 7 -9 -3 -16 -1 -16 6 0 6 -8 9 -19 5 -10 -3 -29 -1 -42 4 -24 10
-23 10 6 12 18 1 23 3 13 6 -10 2 -18 8 -18 13 0 4 8 6 19 3 10 -3 22 0 25 6
4 6 14 8 24 3 21 -9 53 -9 69 1 7 5 16 -1 23 -13 6 -11 21 -20 33 -20 22 1 22
1 -3 22 -14 11 -37 25 -52 30 -16 6 -26 13 -24 17 3 4 -8 15 -25 25 -16 9 -29
21 -29 25 0 13 -59 38 -103 45 -32 5 -36 4 -25 -8 7 -8 15 -10 16 -5 2 5 9 6
15 2 7 -4 21 -9 32 -10 34 -5 47 -12 40 -23 -7 -12 -55 -9 -55 3 0 5 -6 5 -13
-1 -14 -12 -52 10 -39 22 4 5 0 7 -8 6 -29 -4 -39 0 -34 15 4 8 9 13 13 11 4
-3 13 0 21 5 13 8 13 10 0 18 -8 5 -17 8 -21 5 -4 -2 -10 0 -13 5 -4 5 5 8 18
7 14 -2 24 1 23 7 -1 5 4 12 12 15 8 2 11 0 8 -5 -3 -5 0 -10 8 -10 8 0 16 6
19 12 4 11 -1 13 -44 17 -11 1 -20 6 -20 10 0 4 -5 8 -11 8 -5 0 -7 -4 -4 -10
3 -5 2 -10 -3 -10 -6 0 -12 6 -15 14 -4 10 2 16 16 18 13 2 0 8 -31 14 -39 8
-57 8 -65 0 -7 -6 -21 -18 -32 -26 -20 -15 -20 -14 -1 8 l19 22 -33 0 c-57 0
-26 10 45 15 80 5 100 15 26 12 -30 -1 -50 2 -48 8 2 6 30 9 63 8 49 -2 53 -1
26 6 -18 5 -43 17 -55 27 -21 19 -21 19 -7 0 14 -18 14 -19 -5 -9 -11 6 -27 8
-35 5 -12 -4 -13 -2 -2 9 6 7 33 16 60 20 l47 8 -55 -3 c-30 -2 -64 -6 -75
-10 -11 -4 -7 0 8 9 39 22 30 27 -18 10 -22 -8 -56 -14 -75 -14 l-35 -1 30 20
c17 11 24 20 15 20 -9 0 -26 -7 -38 -16 -20 -14 -24 -14 -44 0 -22 16 -22 16
17 17 39 1 39 2 10 9 l-30 8 35 -1 c29 0 80 16 80 27 0 8 -115 -14 -118 -23
-2 -6 -8 -11 -13 -11 -6 0 -7 4 -4 10 4 6 -2 7 -16 1 -13 -4 -25 -14 -28 -22
-4 -12 -2 -12 13 0 9 8 19 12 22 9 2 -3 -7 -13 -22 -23 -15 -9 -23 -12 -19 -5
14 22 -37 -1 -62 -29 l-24 -26 17 29 18 29 -32 -17 c-18 -9 -32 -13 -32 -10 0
4 -9 -1 -20 -11 -11 -10 -17 -21 -15 -25 3 -4 -3 -14 -13 -21 -15 -13 -16 -12
-3 4 9 11 10 17 2 17 -6 0 -10 6 -8 13 1 6 -5 11 -13 9 -8 -2 -11 0 -7 5 5 4
18 8 30 9 12 0 38 8 57 17 25 12 28 15 10 11 -24 -5 -24 -4 -6 10 10 8 24 17
30 19 7 3 6 9 -3 21 -11 13 -24 16 -50 12 -36 -6 -36 -6 -11 8 14 9 21 15 15
15 -5 0 -18 -4 -28 -10z m13 -49 c0 -5 -8 -10 -17 -10 -15 0 -16 2 -3 10 19
12 20 12 20 0z m-60 -34 c0 -2 -8 -10 -17 -17 -16 -13 -17 -12 -4 4 13 16 21
21 21 13z m-40 -10 c0 -2 -8 -10 -17 -17 -16 -13 -17 -12 -4 4 13 16 21 21 21
13z m349 -15 c12 -8 9 -11 -13 -17 -17 -4 -32 -2 -39 6 -9 10 -9 11 0 6 6 -3
14 -2 18 4 8 12 16 12 34 1z m-156 -20 c-12 -10 -19 -21 -16 -25 4 -3 18 4 32
16 21 19 20 17 -3 -10 -33 -35 -37 -38 -33 -19 1 6 -5 11 -13 9 -8 -1 -1 9 15
23 17 14 32 25 35 25 3 -1 -5 -9 -17 -19z m64 -22 c-9 -6 -15 -14 -13 -18 3
-4 -1 -8 -8 -8 -7 0 -13 6 -13 13 0 7 4 11 8 8 4 -2 10 0 14 6 3 5 12 10 18
10 7 0 4 -5 -6 -11z m-127 -30 c-7 -11 -14 -18 -17 -15 -4 3 -14 0 -23 -6 -9
-7 -3 -1 14 15 36 32 40 34 26 6z m440 -39 c0 -5 -2 -10 -4 -10 -3 0 -8 5 -11
10 -3 6 -1 10 4 10 6 0 11 -4 11 -10z m-2 -37 c-10 -2 -26 -2 -35 0 -10 3 -2
5 17 5 19 0 27 -2 18 -5z m79 -9 c-3 -3 -12 -4 -19 -1 -8 3 -5 6 6 6 11 1 17
-2 13 -5z m-1047 -34 c0 -5 -2 -10 -4 -10 -3 0 -8 5 -11 10 -3 6 -1 10 4 10 6
0 11 -4 11 -10z m295 1 c3 -5 2 -12 -3 -15 -5 -3 -9 1 -9 9 0 17 3 19 12 6z
m705 -21 c8 -5 11 -10 5 -10 -5 0 -17 5 -25 10 -8 5 -10 10 -5 10 6 0 17 -5
25 -10z m-750 -24 c0 -2 -7 -9 -15 -16 -13 -11 -14 -10 -9 4 5 14 24 23 24 12z
m749 0 c-2 -2 -20 -6 -39 -10 -25 -4 -31 -3 -20 4 14 9 69 15 59 6z m-799 -11
c0 -2 -10 -9 -22 -15 -22 -11 -22 -10 -4 4 21 17 26 19 26 11z m10 -30 c0 -8
-4 -15 -10 -15 -5 0 -7 7 -4 15 4 8 8 15 10 15 2 0 4 -7 4 -15z m701 -2 c13
-16 12 -17 -3 -4 -17 13 -22 21 -14 21 2 0 10 -8 17 -17z m279 -28 c7 -8 15
-13 19 -12 3 2 17 -8 31 -22 l25 -25 -28 17 c-15 10 -33 15 -40 11 -7 -4 -9
-4 -5 1 4 4 -3 16 -15 26 -12 10 -17 18 -11 19 6 0 17 -7 24 -15z m424 7 c3
-5 -1 -9 -9 -9 -8 0 -12 4 -9 9 3 4 7 8 9 8 2 0 6 -4 9 -8z m-1510 -41 c3 8 3
3 0 -11 -3 -14 -12 -31 -18 -38 -9 -10 -11 -4 -8 24 3 22 7 31 12 24 6 -9 9
-9 14 1z m-897 -27 c-3 -3 -12 -4 -19 -1 -8 3 -5 6 6 6 11 1 17 -2 13 -5z
m-640 -20 c-3 -3 -12 -4 -19 -1 -8 3 -5 6 6 6 11 1 17 -2 13 -5z m718 -4 c13
-6 15 -9 5 -9 -8 0 -22 4 -30 9 -18 12 -2 12 25 0z m-1020 -17 c8 -21 7 -23
-2 -23 -5 0 -8 3 -8 8 0 4 -4 13 -8 20 -5 6 -4 12 1 12 6 0 13 -8 17 -17z
m728 10 c-7 -2 -21 -2 -30 0 -10 3 -4 5 12 5 17 0 24 -2 18 -5z m1097 -23 c0
-5 -5 -10 -11 -10 -5 0 -7 5 -4 10 3 6 8 10 11 10 2 0 4 -4 4 -10z m1189 -12
c13 -22 13 -23 -6 -5 -11 9 -23 14 -28 10 -4 -5 -5 -2 -1 5 10 18 19 15 35
-10z m265 -3 c3 -10 0 -12 -11 -8 -12 5 -14 3 -8 -7 5 -9 4 -11 -3 -6 -7 4
-12 2 -12 -3 0 -6 5 -11 10 -11 6 0 10 -8 9 -17 0 -11 -3 -13 -6 -5 -2 6 -11
12 -19 12 -18 0 -18 14 1 30 9 7 14 19 11 26 -3 8 0 11 9 8 7 -3 16 -12 19
-19z m-2914 4 c12 -8 11 -9 -6 -7 -11 2 -29 -4 -40 -12 -19 -14 -19 -14 0 8
22 25 25 26 46 11z m293 4 c-7 -2 -19 -2 -25 0 -7 3 -2 5 12 5 14 0 19 -2 13
-5z m-483 -23 c0 -5 -2 -10 -4 -10 -3 0 -8 5 -11 10 -3 6 -1 10 4 10 6 0 11
-4 11 -10z m537 4 c-3 -3 -12 -4 -19 -1 -8 3 -5 6 6 6 11 1 17 -2 13 -5z
m-617 -18 c0 -3 -4 -8 -10 -11 -5 -3 -10 -1 -10 4 0 6 5 11 10 11 6 0 10 -2
10 -4z m197 -33 c-3 -10 -5 -4 -5 12 0 17 2 24 5 18 2 -7 2 -21 0 -30z m1042
-7 c-1 -20 -2 -20 -6 -1 -3 11 -10 27 -17 35 -10 13 -9 13 7 1 9 -7 16 -23 16
-35z m1716 24 c3 -6 -1 -7 -9 -4 -18 7 -21 14 -7 14 6 0 13 -4 16 -10z m255 0
c8 -5 11 -10 5 -10 -5 0 -17 5 -25 10 -8 5 -10 10 -5 10 6 0 17 -5 25 -10z
m-2083 -27 c-3 -3 -11 -2 -17 2 -9 6 -9 10 1 16 14 8 27 -7 16 -18z m2021 -4
c-2 -6 3 -14 10 -16 6 -3 12 1 12 7 0 7 6 5 16 -4 26 -27 11 -37 -24 -16 -18
11 -30 25 -27 30 8 13 16 13 13 -1z m-1826 -17 c-10 -3 -10 -7 -1 -18 8 -10
16 -11 33 -3 20 10 20 9 2 -5 -16 -13 -21 -13 -40 -1 -11 8 -29 15 -39 15 -10
0 -16 4 -13 8 3 5 20 9 38 9 18 0 27 -2 20 -5z m-368 -18 c3 -8 2 -12 -4 -9
-6 3 -10 10 -10 16 0 14 7 11 14 -7z m-253 -35 c11 -11 19 -23 17 -25 -3 -2
-15 7 -28 21 -28 30 -19 34 11 4z m309 -5 c0 -2 -9 0 -20 6 -11 6 -20 13 -20
16 0 2 9 0 20 -6 11 -6 20 -13 20 -16z m489 -18 c-1 -23 -3 -33 -6 -23 -2 9
-9 17 -15 17 -5 0 -8 -6 -5 -14 4 -10 -2 -12 -24 -7 -17 3 -30 9 -30 14 0 23
38 54 67 54 10 0 14 -12 13 -41z m-689 19 c5 3 10 2 10 -4 0 -5 9 -13 20 -16
19 -6 18 -8 -10 -32 -30 -24 -45 -24 -45 0 -1 7 4 15 10 20 6 5 4 11 -7 18
-10 5 -18 15 -18 21 0 7 5 6 15 -2 8 -6 19 -9 25 -5z m546 5 c21 0 23 -2 12
-19 -9 -15 -9 -25 0 -46 12 -25 11 -26 -15 -24 -16 2 -33 0 -39 -4 -6 -3 -19
0 -29 7 -16 11 -13 13 19 11 32 -1 35 1 20 12 -9 7 -21 14 -27 16 -6 2 -7 15
-3 31 5 20 11 26 22 22 9 -3 27 -6 40 -6z m-1448 -25 c-3 -3 -9 2 -12 12 -6
14 -5 15 5 6 7 -7 10 -15 7 -18z m1242 15 c13 -9 13 -10 0 -10 -8 0 -22 5 -30
10 -13 9 -13 10 0 10 8 0 22 -5 30 -10z m-1350 -52 c0 -4 -4 -8 -9 -8 -5 0
-18 -3 -28 -6 -16 -5 -16 -4 1 10 11 9 14 16 8 16 -7 0 -12 10 -12 22 l0 21
20 -23 c11 -13 20 -27 20 -32z m3210 42 c0 -5 -2 -10 -4 -10 -3 0 -8 5 -11 10
-3 6 -1 10 4 10 6 0 11 -4 11 -10z m120 -20 c12 -23 12 -24 -3 -11 -10 7 -17
20 -17 29 0 18 3 16 20 -18z m-2362 -16 c-1 -13 -8 -24 -15 -24 -19 0 -26 20
-8 26 12 5 13 9 4 20 -10 12 -9 13 4 8 10 -3 16 -16 15 -30z m-70 8 c2 -7 -2
-10 -12 -6 -9 3 -16 11 -16 16 0 13 23 5 28 -10z m253 0 c13 -10 29 -17 34
-17 20 3 45 17 41 24 -2 3 11 6 29 6 23 0 30 -3 24 -11 -15 -18 45 -68 73 -61
22 6 22 5 4 -8 -14 -10 -16 -18 -9 -27 16 -20 12 -47 -6 -40 -9 3 -11 7 -4 9
7 3 9 11 6 19 -3 7 -9 12 -13 9 -4 -3 -13 2 -20 11 -7 8 -16 11 -19 7 -3 -5
-22 -3 -41 4 l-35 12 48 -3 c26 -2 47 0 47 5 0 5 -6 9 -14 9 -8 0 -17 7 -20
16 -3 8 -10 13 -15 10 -5 -4 -11 -1 -13 5 -4 12 -38 1 -38 -13 0 -6 7 -8 15
-4 8 3 15 1 15 -4 0 -6 -9 -10 -21 -10 -11 0 -18 -4 -15 -9 9 -14 -88 -2 -99
12 -5 7 -25 13 -42 13 -41 -1 -47 15 -11 28 22 8 32 6 48 -9 18 -17 20 -17 20
-1 0 10 5 14 12 10 7 -4 8 -3 4 4 -4 6 -13 9 -21 5 -8 -3 -15 0 -15 6 0 17 24
13 51 -7z m269 -17 c0 -5 -5 -3 -10 5 -5 8 -10 20 -10 25 0 6 5 3 10 -5 5 -8
10 -19 10 -25z m-1095 16 c3 -5 1 -12 -4 -15 -5 -3 -11 1 -15 9 -6 16 9 21 19
6z m3049 -17 c3 -8 2 -12 -4 -9 -6 3 -10 10 -10 16 0 14 7 11 14 -7z m-1746
-1 c-22 -5 -24 -23 -3 -23 8 0 15 -5 15 -11 0 -5 -4 -8 -10 -4 -12 8 -53 -33
-45 -45 4 -6 1 -10 -4 -10 -6 0 -11 5 -11 10 0 6 -4 9 -9 8 -5 -2 -9 0 -10 5
-3 20 0 28 7 23 5 -3 19 8 31 24 12 17 29 29 39 29 16 -1 16 -2 0 -6z m572
-25 c0 -19 -16 -5 -17 14 -2 18 0 20 7 8 5 -8 10 -18 10 -22z m-767 9 c4 3 25
-6 47 -21 44 -29 55 -32 44 -13 -4 7 -3 9 2 4 5 -5 9 -12 9 -17 0 -4 12 -20
28 -34 15 -14 27 -20 27 -14 0 19 10 2 20 -33 l10 -34 -25 32 c-16 19 -31 30
-40 26 -8 -3 -12 -10 -8 -17 4 -7 1 -6 -9 2 -9 7 -27 10 -47 6 -27 -6 -31 -11
-31 -38 0 -17 -4 -26 -8 -20 -4 6 -16 16 -27 23 -19 11 -19 12 3 6 18 -5 22
-2 22 14 0 14 6 21 18 21 10 0 27 6 37 14 14 10 25 11 40 4 14 -7 13 -4 -5 11
-30 24 -44 27 -36 6 3 -8 4 -15 2 -15 -3 0 -12 -3 -22 -7 -13 -5 -16 -3 -11
10 4 10 1 17 -6 18 -9 0 -9 2 1 6 18 7 15 21 -7 33 -18 9 -19 7 -15 -27 l4
-38 -11 35 c-6 19 -15 40 -21 45 -8 7 -8 5 -3 -5 8 -13 7 -13 -8 -1 -23 18
-22 34 2 22 10 -6 21 -8 24 -4z m1927 -8 c0 -6 -4 -7 -10 -4 -5 3 -10 11 -10
16 0 6 5 7 10 4 6 -3 10 -11 10 -16z m-2724 -1 c5 4 3 0 -4 -10 -7 -9 -21 -15
-30 -13 -9 2 -20 4 -23 4 -3 1 -6 7 -6 15 0 10 7 12 28 6 15 -5 31 -5 35 -2z
m219 -18 c3 -5 1 -10 -4 -10 -6 0 -11 5 -11 10 0 6 2 10 4 10 3 0 8 -4 11 -10z
m855 -16 c0 -3 -4 -3 -9 0 -5 4 -11 1 -13 -6 -3 -7 -7 -3 -10 10 -5 19 -4 20
13 11 10 -5 19 -12 19 -15z m1025 -14 c-5 -8 -11 -8 -17 -2 -6 6 -7 16 -3 22
5 8 11 8 17 2 6 -6 7 -16 3 -22z m-2761 11 c7 -11 -22 -36 -31 -27 -3 3 -1 6
6 6 8 0 11 7 7 15 -6 16 9 21 18 6z m126 -10 c0 -5 12 -14 28 -20 24 -10 24
-10 2 -5 -14 3 -33 6 -42 5 -18 0 -23 10 -11 22 9 10 23 9 23 -2z m1088 -8
c15 -37 64 -113 73 -113 15 0 10 27 -7 34 -8 3 -13 10 -9 16 3 5 -2 22 -11 37
-15 26 -15 27 0 8 9 -11 22 -20 29 -20 7 0 11 -10 9 -25 -2 -14 -1 -22 4 -18
4 4 13 3 21 -3 7 -6 13 -8 13 -3 0 4 11 -3 25 -16 14 -13 25 -33 25 -44 0 -20
0 -20 -15 0 -15 18 -15 18 -8 0 5 -14 3 -17 -7 -11 -8 5 -11 4 -7 -2 9 -14 57
-10 67 6 6 10 9 8 15 -8 3 -12 11 -18 17 -15 7 5 9 1 5 -9 -4 -11 -1 -17 8
-17 8 0 15 -9 15 -19 0 -11 5 -23 11 -27 6 -3 9 -15 6 -25 -3 -11 -2 -17 1
-15 10 6 8 -107 -2 -122 -12 -20 -35 27 -26 53 8 22 3 45 -9 45 -10 0 -8 -66
2 -76 11 -12 8 -21 -8 -21 -10 0 -15 11 -16 36 l-1 36 -8 -40 c-5 -22 -7 -47
-4 -56 2 -9 -2 -22 -11 -29 -8 -7 -15 -19 -15 -27 0 -8 -3 -12 -8 -10 -4 3 -8
-43 -10 -103 -2 -102 -10 -139 -44 -207 -6 -13 -15 -23 -20 -23 -5 0 -6 5 -2
12 5 7 2 9 -9 5 -22 -8 -40 18 -35 53 3 16 1 30 -4 30 -4 0 -8 -8 -8 -18 0
-10 -7 -19 -15 -19 -19 0 -19 24 0 57 12 21 14 22 15 6 0 -15 3 -16 15 -6 14
12 14 15 0 30 -17 19 -20 34 -5 25 6 -4 7 2 1 17 -6 15 -4 32 5 49 9 18 10 35
4 55 -6 22 -9 24 -10 9 -1 -19 -2 -18 -10 3 -5 12 -12 22 -14 22 -3 0 -2 -10
3 -22 11 -30 6 -104 -10 -157 -14 -49 -51 -79 -91 -75 -16 2 -28 -1 -28 -7 0
-5 -12 -9 -27 -9 -22 0 -25 -2 -13 -10 8 -5 11 -10 6 -10 -6 0 -5 -5 2 -12 16
-16 16 -33 0 -21 -25 19 -47 22 -59 7 -7 -8 -8 -14 -3 -12 13 4 74 -44 68 -54
-3 -4 -15 -8 -28 -8 -13 0 -58 -9 -102 -21 -97 -25 -132 -30 -141 -16 -3 5
-14 0 -25 -14 -11 -13 -16 -17 -12 -9 4 8 14 24 23 34 9 11 10 16 4 12 -15 -8
-18 10 -3 19 6 3 10 11 10 16 0 6 -5 7 -12 3 -6 -4 -8 -3 -5 4 4 5 15 9 25 7
9 -1 12 0 5 2 -7 2 -9 12 -6 21 5 14 3 15 -8 5 -25 -24 -29 -13 -8 25 12 20
25 42 29 47 4 6 8 23 8 39 0 17 -3 23 -8 15 -5 -6 -6 -18 -3 -26 6 -16 -16
-45 -28 -37 -14 8 -10 98 6 145 9 24 13 49 10 57 -2 7 -1 11 4 7 18 -10 22
117 6 175 l-15 55 5 -57 c3 -31 1 -59 -5 -63 -5 -3 -7 -13 -4 -23 5 -14 4 -14
-4 -3 -7 10 -7 21 -1 34 6 10 8 23 5 30 -2 7 -5 4 -5 -6 -1 -11 -6 -15 -13
-11 -6 4 -8 3 -5 -4 4 -5 3 -21 -2 -34 -8 -18 -10 -11 -10 36 -1 64 -6 70 -14
18 -5 -32 -17 -56 -17 -36 -6 122 -5 200 0 235 4 24 8 35 9 24 1 -11 14 11 28
48 18 47 28 64 34 55 12 -19 11 -40 -2 -32 -7 4 -6 -2 2 -17 6 -13 12 -39 12
-59 0 -20 2 -25 4 -12 2 12 13 27 24 32 12 7 19 21 19 38 -1 26 -1 26 -15 8
-8 -11 -15 -16 -15 -10 0 5 7 18 15 28 11 14 15 16 15 5 0 -12 2 -12 10 1 7
10 8 3 5 -25 -4 -32 -3 -35 4 -15 5 14 10 18 10 10 1 -12 5 -11 16 4 8 11 15
15 15 9 0 -7 -4 -14 -10 -18 -5 -3 -7 -13 -4 -23 4 -12 3 -13 -3 -5 -6 9 -9 0
-10 -25 -1 -33 0 -34 8 -13 5 13 17 30 26 36 9 7 13 17 9 23 -4 7 -2 12 3 12
6 0 11 -6 11 -12 0 -9 3 -9 9 1 7 11 10 10 15 -5 3 -11 4 -7 2 8 -2 15 1 25 5
22 5 -3 9 -12 9 -20 0 -8 5 -12 10 -9 6 3 11 -2 11 -12 1 -10 5 -2 9 17 5 24
8 28 9 12 0 -13 5 -20 11 -17 6 4 8 16 5 28 -5 18 -3 17 12 -5 20 -32 39 -38
23 -8 -13 24 -7 26 14 4 9 -8 16 -11 16 -5 0 6 7 7 17 4 11 -4 14 -3 9 6 -5 7
-14 10 -22 7 -8 -3 -14 -1 -14 4 0 6 4 10 10 10 5 0 9 11 8 25 -2 23 -10 29
-30 26 -4 0 -12 9 -19 20 l-11 21 34 -18 c18 -11 36 -23 40 -29 4 -5 8 -6 8
-2 0 4 16 -9 36 -28 20 -20 39 -33 42 -30 4 4 -1 11 -11 16 -9 6 -15 15 -11
20 3 6 12 5 22 -3 14 -12 14 -10 2 12 -7 14 -23 40 -37 58 -19 26 -21 32 -8
32 9 0 19 -8 23 -17z m232 -7 c8 -11 10 -17 3 -13 -7 4 -16 0 -22 -10 -9 -16
-10 -16 -11 -1 0 16 11 52 14 46 1 -2 8 -12 16 -22z m-403 8 c-3 -3 -12 -4
-19 -1 -8 3 -5 6 6 6 11 1 17 -2 13 -5z m268 -12 c-3 -3 -11 0 -18 7 -9 10 -8
11 6 5 10 -3 15 -9 12 -12z m420 -2 c-10 -11 -22 -17 -26 -14 -16 10 -9 23 14
27 12 2 24 5 26 6 2 0 -4 -8 -14 -19z m1649 -42 c-3 -4 -10 -6 -15 -2 -6 3 -8
9 -5 12 3 3 -2 15 -11 26 -13 16 -11 15 9 -3 15 -13 25 -28 22 -33z m-1699 33
c3 -5 1 -12 -5 -16 -5 -3 -10 1 -10 9 0 18 6 21 15 7z m-1645 -11 c0 -12 -8
-12 -35 0 -18 8 -17 9 8 9 15 1 27 -3 27 -9z m690 -42 c-23 -24 -37 -34 -32
-22 6 11 18 26 26 33 9 8 13 18 9 24 -3 5 -1 7 5 3 6 -3 14 -1 17 5 4 5 9 8
12 5 3 -3 -13 -25 -37 -48z m460 32 c0 -5 -2 -10 -4 -10 -3 0 -8 5 -11 10 -3
6 -1 10 4 10 6 0 11 -4 11 -10z m540 -21 c0 -10 -5 -19 -11 -19 -5 0 -7 5 -4
10 3 6 -4 10 -16 10 -17 0 -19 3 -9 14 15 19 40 9 40 -15z m-1566 12 c3 -5 0
-11 -8 -14 -15 -6 -26 1 -26 15 0 11 27 10 34 -1z m3579 -17 c-6 -17 -23 -19
-23 -3 0 6 -9 9 -20 6 -11 -3 -20 -1 -20 3 0 11 29 17 52 12 9 -2 14 -10 11
-18z m-3245 -26 c-8 -12 -21 -24 -29 -26 -8 -2 -5 3 6 12 11 8 16 16 10 16 -5
0 -3 5 5 10 22 14 24 12 8 -12z m259 7 c0 -8 -4 -12 -8 -10 -11 7 -16 -16 -13
-62 2 -24 -1 -43 -6 -43 -6 0 -10 -5 -10 -11 0 -5 4 -8 10 -4 5 3 3 -7 -5 -22
-11 -21 -12 -29 -2 -35 9 -6 9 -8 0 -8 -7 0 -12 -3 -12 -7 3 -20 -3 -66 -8
-55 -2 6 -10 9 -15 6 -7 -5 -8 -2 -2 7 4 8 9 30 11 49 6 83 13 123 25 137 10
12 10 17 1 20 -8 3 -5 12 9 29 25 28 25 28 25 9z m764 -12 c13 -16 12 -17 -3
-4 -10 7 -18 15 -18 17 0 8 8 3 21 -13z m189 -18 c0 -18 -4 -23 -15 -19 -16 6
-20 26 -8 37 13 14 23 6 23 -18z m1940 5 c0 -5 -5 -10 -11 -10 -5 0 -7 5 -4
10 3 6 8 10 11 10 2 0 4 -4 4 -10z m-3200 -16 c11 -12 11 -15 0 -12 -7 2 -15
-3 -17 -9 -6 -16 19 -17 34 -2 8 8 13 7 18 -2 5 -7 4 -10 -2 -6 -11 7 -63 -43
-66 -64 -2 -8 -7 -21 -12 -29 -5 -8 -10 -19 -11 -25 -14 -70 -34 -190 -34
-199 0 -6 5 -4 10 4 11 17 13 9 3 -15 -5 -15 -8 -14 -20 6 -12 21 -13 22 -12
4 3 -43 -1 -75 -10 -75 -6 0 -6 12 -1 28 5 19 3 40 -6 61 -9 20 -9 29 -2 25 6
-4 8 -3 5 2 -11 18 -15 94 -5 94 5 0 6 -9 3 -20 -3 -11 -2 -20 3 -20 9 0 22
51 27 103 1 10 8 23 16 28 8 5 10 9 5 9 -5 0 -1 9 9 20 15 16 16 22 5 35 -11
13 -11 16 1 13 8 -2 13 2 12 9 -2 7 6 17 17 23 11 6 18 15 15 21 -10 15 1 10
15 -7z m1213 -5 c4 -16 3 -18 -9 -8 -7 6 -11 15 -8 20 8 13 11 11 17 -12z
m-182 -16 c-8 -15 -10 -15 -11 -2 0 17 10 32 18 25 2 -3 -1 -13 -7 -23z m-711
13 c0 -3 -4 -8 -10 -11 -5 -3 -10 -1 -10 4 0 6 5 11 10 11 6 0 10 -2 10 -4z
m893 -39 c-6 -9 -43 21 -43 35 0 5 11 1 24 -9 13 -10 22 -22 19 -26z m-1132 6
c-8 -15 -10 -15 -11 -2 0 17 10 32 18 25 2 -3 -1 -13 -7 -23z m1033 8 c4 -5
-3 -7 -14 -4 -23 6 -26 13 -6 13 8 0 17 -4 20 -9z m-882 -23 c-5 -7 -12 -22
-15 -33 -5 -20 -5 -20 -6 1 0 11 4 25 11 32 16 16 23 15 10 0z m-319 -43 c-27
-33 -43 -43 -43 -27 0 4 11 19 24 34 14 14 22 29 18 32 -3 4 1 4 11 0 15 -5
14 -10 -10 -39z m-113 31 c0 -2 -8 -10 -17 -17 -16 -13 -17 -12 -4 4 13 16 21
21 21 13z m1890 0 c0 -2 -8 -10 -17 -17 -16 -13 -17 -12 -4 4 13 16 21 21 21
13z m-1440 -21 c0 -8 -4 -15 -10 -15 -5 0 -7 7 -4 15 4 8 8 15 10 15 2 0 4 -7
4 -15z m-382 -20 c-6 -14 -13 -23 -15 -21 -5 5 15 46 22 46 3 0 -1 -11 -7 -25z
m-101 -17 c-3 -8 -6 -5 -6 6 -1 11 2 17 5 13 3 -3 4 -12 1 -19z m206 -23 c-3
-9 -8 -14 -10 -11 -3 3 -2 9 2 15 9 16 15 13 8 -4z m254 -7 c-3 -8 -6 -5 -6 6
-1 11 2 17 5 13 3 -3 4 -12 1 -19z m-474 -26 c-3 -12 -10 -22 -15 -22 -5 0 -7
-4 -4 -8 6 -10 -11 -38 -19 -31 -7 8 11 55 27 73 16 18 19 15 11 -12z m247 13
c0 -8 -5 -14 -11 -12 -7 1 -18 -14 -26 -33 -12 -32 -12 -33 2 -16 8 11 15 24
15 30 0 5 3 7 6 4 7 -7 -14 -49 -32 -63 -7 -5 -15 -19 -18 -30 -5 -21 1 46 8
80 2 11 5 23 5 28 1 4 8 7 16 7 8 0 15 5 15 10 0 6 5 10 10 10 6 0 10 -7 10
-15z m288 -41 c-1 -19 -6 -38 -12 -41 -5 -4 -7 4 -3 18 4 13 7 32 7 42 0 9 2
17 5 17 3 0 5 -16 3 -36z m-265 -4 c-3 -12 -8 -19 -11 -16 -5 6 5 36 12 36 2
0 2 -9 -1 -20z m-400 -5 c-3 -9 -8 -14 -10 -11 -3 3 -2 9 2 15 9 16 15 13 8
-4z m424 -7 c-3 -8 -6 -5 -6 6 -1 11 2 17 5 13 3 -3 4 -12 1 -19z m-462 -18
c-3 -5 -16 -15 -28 -21 -19 -9 -19 -8 3 10 28 23 34 26 25 11z m18 -15 c-3 -9
-8 -14 -10 -11 -3 3 -2 9 2 15 9 16 15 13 8 -4z m414 -17 c-3 -7 -5 -2 -5 12
0 14 2 19 5 13 2 -7 2 -19 0 -25z m-300 -5 c-5 -12 -13 -23 -17 -23 -4 0 -5
11 -3 23 3 13 11 24 18 24 10 0 11 -6 2 -24z m550 -5 c-3 -8 -6 -5 -6 6 -1 11
2 17 5 13 3 -3 4 -12 1 -19z m-652 2 c-3 -5 -14 -10 -23 -9 -14 0 -13 2 3 9
27 11 27 11 20 0z m592 -12 c-3 -8 -6 -5 -6 6 -1 11 2 17 5 13 3 -3 4 -12 1
-19z m837 -45 c-1 -15 -3 -34 -3 -41 -1 -7 -5 -11 -9 -8 -4 2 -6 23 -4 45 5
45 19 49 16 4z m1151 19 c-3 -3 -11 0 -18 7 -9 10 -8 11 6 5 10 -3 15 -9 12
-12z m-1998 -24 c-3 -8 -6 -5 -6 6 -1 11 2 17 5 13 3 -3 4 -12 1 -19z m-360
-30 c-3 -7 -5 -2 -5 12 0 14 2 19 5 13 2 -7 2 -19 0 -25z m420 0 c-3 -7 -5 -2
-5 12 0 14 2 19 5 13 2 -7 2 -19 0 -25z m-531 -4 c-3 -8 -2 -12 4 -9 15 9 12
-5 -5 -21 -13 -14 -15 -12 -15 15 0 17 5 31 11 31 6 0 8 -7 5 -16z m389 -13
c3 -5 1 -12 -5 -16 -5 -3 -10 1 -10 9 0 18 6 21 15 7z m-555 -5 c0 -2 -6 -9
-14 -15 -11 -9 -16 -9 -22 0 -4 7 -3 9 4 5 6 -3 13 -2 17 4 6 10 15 14 15 6z
m-57 -26 c-3 -10 -11 -24 -19 -31 -10 -8 -10 -3 2 20 18 35 24 40 17 11z
m1537 16 c0 -2 -8 -10 -17 -17 -16 -13 -17 -12 -4 4 13 16 21 21 21 13z
m-1339 -58 c-3 -21 -6 -26 -9 -15 -3 17 3 47 11 47 2 0 1 -15 -2 -32z m186 -5
c-3 -10 -5 -4 -5 12 0 17 2 24 5 18 2 -7 2 -21 0 -30z m-423 -22 c-9 -11 -21
13 -16 32 6 22 6 22 12 -3 4 -14 6 -27 4 -29z m1766 9 c0 -5 -4 -10 -10 -10
-5 0 -10 5 -10 10 0 6 5 10 10 10 6 0 10 -4 10 -10z m-1392 -31 c-3 -8 -7 -3
-11 10 -4 17 -3 21 5 13 5 -5 8 -16 6 -23z m219 -1 c-3 -7 -5 -2 -5 12 0 14 2
19 5 13 2 -7 2 -19 0 -25z m-313 -18 c4 -25 3 -31 -4 -20 -5 8 -10 26 -10 39
0 32 6 24 14 -19z m-47 8 c-3 -8 -6 -5 -6 6 -1 11 2 17 5 13 3 -3 4 -12 1 -19z
m60 0 c-3 -8 -6 -5 -6 6 -1 11 2 17 5 13 3 -3 4 -12 1 -19z m110 -40 c-3 -8
-6 -5 -6 6 -1 11 2 17 5 13 3 -3 4 -12 1 -19z m217 -53 c5 -13 2 -12 -8 5 -8
14 -15 36 -15 50 1 23 2 22 9 -5 4 -16 11 -39 14 -50z m-191 15 c3 -11 1 -18
-4 -14 -5 3 -9 12 -9 20 0 20 7 17 13 -6z m-200 -51 c-5 -5 -7 7 -4 29 5 34 6
35 9 8 2 -16 0 -32 -5 -37z m64 14 c-3 -10 -5 -4 -5 12 0 17 2 24 5 18 2 -7 2
-21 0 -30z m30 -5 c-3 -7 -5 -2 -5 12 0 14 2 19 5 13 2 -7 2 -19 0 -25z m573
-10 c0 -5 -4 -8 -10 -8 -5 0 -10 8 -10 18 -1 11 -6 6 -15 -13 -16 -35 -20 -19
-5 21 10 26 11 26 25 8 8 -10 15 -22 15 -26z m-643 -5 c-3 -10 -5 -4 -5 12 0
17 2 24 5 18 2 -7 2 -21 0 -30z m1580 15 c-3 -8 -6 -5 -6 6 -1 11 2 17 5 13 3
-3 4 -12 1 -19z m-1230 -13 c0 -8 -4 -12 -9 -9 -5 3 -6 10 -3 15 9 13 12 11
12 -6z m-622 -5 c3 -5 1 -10 -4 -10 -6 0 -11 5 -11 10 0 6 2 10 4 10 3 0 8 -4
11 -10z m322 -32 c-3 -7 -5 -2 -5 12 0 14 2 19 5 13 2 -7 2 -19 0 -25z m523 7
c-15 -18 -5 -49 12 -39 9 6 9 3 -1 -9 -7 -9 -17 -15 -21 -12 -5 3 -11 1 -15
-5 -3 -5 -11 -10 -17 -10 -7 0 -7 4 1 13 6 8 8 17 4 21 -4 4 1 4 11 0 14 -5
17 -4 11 5 -7 13 14 65 23 56 3 -2 -1 -11 -8 -20z m1028 -3 c2 -12 7 -22 12
-22 5 0 14 -19 20 -42 7 -24 29 -71 51 -105 l40 -61 -25 -26 c-15 -14 -26 -22
-26 -19 0 4 -5 2 -11 -4 -16 -16 -39 -5 -31 15 5 14 4 15 -10 2 -9 -8 -15 -19
-15 -24 1 -5 -3 -10 -10 -13 -20 -7 -46 53 -33 77 9 17 8 20 -7 17 -10 -1 -23
-6 -30 -10 -6 -4 -15 -3 -18 3 -4 6 -3 10 2 9 20 -3 25 2 13 16 -7 9 -11 17
-9 18 2 2 17 11 32 21 l29 18 -7 -24 c-4 -12 -12 -24 -16 -26 -5 -2 -9 -8 -9
-14 0 -7 5 -6 14 2 17 14 51 108 42 117 -3 4 -6 -2 -6 -12 0 -18 -1 -18 -16 1
-8 10 -12 12 -8 4 4 -9 3 -12 -2 -7 -5 5 -9 12 -10 15 0 4 -4 15 -8 24 -9 20
23 80 39 75 5 -2 11 -13 13 -25z m-1626 -29 c-4 -55 -12 -54 -12 2 0 27 3 45
7 41 4 -4 6 -23 5 -43z m-249 16 c5 -3 0 -9 -11 -11 -15 -4 -18 -1 -14 14 2
10 7 15 11 11 3 -4 10 -11 14 -14z m572 -9 c13 -6 15 -9 5 -9 -8 0 -22 4 -30
9 -18 12 -2 12 25 0z m-158 -42 c-3 -8 -6 -5 -6 6 -1 11 2 17 5 13 3 -3 4 -12
1 -19z m116 -39 c-5 -5 -9 -1 -9 9 -1 9 -4 26 -8 37 -4 11 0 7 9 -9 10 -16 13
-32 8 -37z m-623 36 c-7 -9 -15 -13 -17 -11 -7 7 7 26 19 26 6 0 6 -6 -2 -15z
m583 2 c3 -8 -1 -14 -8 -14 -7 0 -11 6 -8 14 3 7 6 13 8 13 2 0 5 -6 8 -13z
m130 -11 c-10 -13 -21 -22 -26 -19 -4 2 3 13 15 23 30 26 32 25 11 -4z m-626
-38 c-2 -13 -4 -5 -4 17 -1 22 1 32 4 23 2 -10 2 -28 0 -40z m1288 32 c-3 -5
-12 -7 -20 -3 -21 7 -19 13 6 13 11 0 18 -4 14 -10z m-998 -22 c-3 -8 -6 -5
-6 6 -1 11 2 17 5 13 3 -3 4 -12 1 -19z m1573 -12 c0 -8 -8 -13 -17 -11 -10 2
-22 4 -28 5 -5 1 -1 5 10 10 29 12 35 12 35 -4z m-2057 -10 c21 -16 21 -22 3
-29 -8 -3 -24 3 -36 13 -15 13 -17 20 -8 23 19 8 21 8 41 -7z m867 5 c0 -5 -9
-19 -21 -32 l-20 -24 15 26 c9 14 13 29 9 32 -3 4 -1 7 5 7 7 0 12 -4 12 -9z
m-200 -46 c21 -24 21 -27 3 -12 -21 19 -22 18 -26 -10 -3 -18 -4 -13 -4 15 0
23 1 41 1 40 1 -2 12 -16 26 -33z m97 20 c0 -8 -4 -12 -9 -9 -4 3 -8 9 -8 15
0 5 4 9 8 9 5 0 9 -7 9 -15z m645 -15 c10 0 21 -6 24 -13 3 -8 18 -14 34 -14
37 0 38 5 4 18 -38 14 -24 21 15 8 40 -14 57 -42 35 -60 -10 -9 -12 -14 -4
-19 10 -6 16 -35 22 -97 2 -20 25 -2 24 19 0 12 5 23 13 26 8 3 11 0 7 -7 -4
-6 -9 -23 -12 -36 -6 -33 21 -45 41 -19 12 17 14 16 20 -19 6 -30 10 -35 21
-26 10 8 12 5 11 -18 -2 -19 -9 -29 -22 -31 -57 -10 -113 -54 -243 -196 -30
-31 -56 -55 -59 -52 -3 2 -14 -4 -25 -14 -18 -16 -31 -18 -81 -11 -5 0 -6 5
-3 9 3 5 -1 9 -8 9 -9 0 -12 -7 -8 -16 3 -8 -7 -4 -23 11 -16 15 -35 24 -44
21 -11 -4 -10 -1 4 11 11 10 14 14 6 10 -11 -5 -13 -3 -7 11 5 14 4 16 -7 6
-11 -8 -18 -6 -32 9 -10 11 -24 20 -31 20 -7 0 -16 4 -19 10 -3 6 2 8 12 5 10
-3 8 0 -4 6 -13 7 -23 16 -23 21 0 5 -3 7 -7 5 -5 -2 -19 10 -33 27 -13 17
-17 25 -7 17 21 -17 23 2 2 19 -9 7 -13 15 -10 18 3 3 -5 10 -18 17 -12 6 -21
19 -21 28 1 9 -4 17 -11 17 -8 0 -11 8 -8 23 4 21 4 21 -10 4 -13 -16 -15 -16
-21 -2 -3 9 -2 14 3 11 5 -3 11 1 15 9 4 11 -2 14 -24 11 -25 -3 -28 -1 -20
14 5 9 16 22 24 29 9 8 13 18 9 24 -3 5 -2 7 4 4 5 -3 17 4 26 17 11 14 26 22
40 20 12 -1 53 -3 90 -3 67 -1 68 -1 56 -23 -11 -20 -11 -22 4 -10 8 7 32 14
53 15 21 2 39 8 42 15 2 7 13 12 25 12 14 0 17 3 10 8 -19 12 8 38 47 47 34 8
68 40 62 60 -2 6 2 4 9 -2 7 -7 21 -13 31 -13z m-504 -45 c-3 -14 -1 -25 5
-25 6 0 8 -3 4 -6 -3 -3 -14 -1 -24 5 -10 6 -12 11 -5 11 6 0 12 9 12 20 0 11
3 20 6 20 4 0 4 -11 2 -25z m292 -39 c0 -2 -7 -7 -16 -10 -8 -3 -12 -2 -9 4 6
10 25 14 25 6z m-910 -20 c0 -2 -8 -10 -17 -17 -16 -13 -17 -12 -4 4 13 16 21
21 21 13z m1756 -44 c-10 -10 -29 15 -21 28 6 9 10 8 17 -4 6 -10 7 -20 4 -24z
m1908 23 c-4 -8 -10 -15 -15 -15 -4 0 -6 7 -3 15 4 8 10 15 15 15 4 0 6 -7 3
-15z m-3145 -39 c-3 -3 -11 5 -18 17 -13 21 -12 21 5 5 10 -10 16 -20 13 -22z
m2247 18 c-4 -12 -2 -15 9 -10 18 6 19 2 4 -26 -9 -17 -13 -18 -20 -7 -6 9 -9
10 -9 2 0 -16 17 -26 25 -13 9 15 25 2 18 -15 -3 -8 0 -15 7 -15 6 0 8 5 5 10
-3 6 1 13 9 16 9 3 16 14 17 23 0 13 2 13 6 1 8 -23 45 -60 59 -60 6 0 15 -7
18 -16 4 -11 -3 -9 -26 7 -28 20 -31 21 -25 5 6 -16 5 -17 -7 -7 -13 11 -15 9
-11 -7 2 -14 -1 -19 -13 -17 -9 1 -27 -5 -39 -13 -18 -11 -23 -11 -23 -2 0 9
-7 7 -20 -5 -17 -16 -20 -16 -20 -2 0 8 6 18 13 20 9 4 9 6 -1 6 -7 1 -15 -6
-19 -14 -5 -14 -7 -14 -23 0 -17 15 -17 46 0 70 4 6 10 19 14 29 6 17 4 17
-11 6 -10 -8 -4 0 12 17 33 34 61 43 51 17z m46 -17 c3 -16 0 -24 -9 -24 -8 0
-11 7 -8 14 3 8 5 19 5 24 0 18 8 9 12 -14z m-1284 -57 l11 -25 -2 25 c-2 14
-7 32 -12 40 -7 13 -6 13 7 2 9 -7 21 -26 28 -43 7 -16 15 -27 18 -24 7 7 51
-52 73 -100 28 -61 25 -92 -12 -114 l-32 -19 -39 29 c-46 33 -102 47 -122 30
-7 -6 -15 -9 -17 -7 -2 2 -26 6 -54 9 -102 12 -121 21 -111 55 11 33 106 39
144 9 9 -7 11 -5 5 9 -6 17 -5 18 11 5 16 -13 17 -13 14 0 -1 7 2 14 7 14 6 0
9 -8 9 -18 -1 -10 1 -15 4 -12 10 9 9 65 -1 65 -4 0 -5 18 -2 41 5 29 3 39 -5
34 -6 -4 -4 7 5 24 15 31 16 31 39 14 13 -10 28 -29 34 -43z m1146 -14 c-4
-28 -7 -56 -7 -63 0 -7 -4 -10 -9 -7 -5 4 -7 13 -4 21 4 9 1 23 -6 31 -11 13
-11 14 1 7 11 -6 13 -4 8 9 -5 11 -3 15 4 10 8 -5 10 3 7 24 -2 17 0 28 5 25
5 -3 5 -28 1 -57z m-716 18 c3 -23 1 -26 -9 -17 -10 10 -17 7 -36 -13 -19 -21
-25 -23 -37 -12 -18 16 -11 28 17 29 14 0 17 3 8 6 -11 4 -8 10 10 24 31 24
43 19 47 -17z m-2218 16 c0 -5 -2 -10 -4 -10 -3 0 -8 5 -11 10 -3 6 -1 10 4
10 6 0 11 -4 11 -10z m3161 -15 c5 4 9 1 9 -5 0 -17 -25 -6 -26 11 -1 9 1 10
3 1 3 -7 9 -10 14 -7z m839 4 c0 -6 -4 -7 -10 -4 -5 3 -10 11 -10 16 0 6 5 7
10 4 6 -3 10 -11 10 -16z m95 11 c-3 -5 -12 -7 -20 -3 -21 7 -19 13 6 13 11 0
18 -4 14 -10z m-58 -26 c-3 -3 -12 -4 -19 -1 -8 3 -5 6 6 6 11 1 17 -2 13 -5z
m-3820 -56 c-3 -8 -6 -5 -6 6 -1 11 2 17 5 13 3 -3 4 -12 1 -19z m2693 15 c0
-5 -5 -15 -10 -23 -7 -12 -9 -10 -7 8 1 19 17 33 17 15z m1000 3 c0 -3 -4 -8
-10 -11 -5 -3 -10 -1 -10 4 0 6 5 11 10 11 6 0 10 -2 10 -4z m-3671 -76 c0
-10 -3 -8 -9 5 -12 27 -12 43 0 25 5 -8 9 -22 9 -30z m1810 -8 c0 -15 -4 -36
-9 -47 -6 -15 -9 -6 -9 33 -1 33 3 51 9 47 6 -3 10 -18 9 -33z m206 28 c-3 -5
-13 -10 -21 -10 -8 0 -14 5 -14 10 0 6 9 10 21 10 11 0 17 -4 14 -10z m-1483
-55 c9 -20 9 -20 -6 -1 -9 11 -16 27 -15 35 0 14 1 14 6 1 3 -8 10 -24 15 -35z
m3068 21 c-14 -8 -29 -12 -34 -8 -10 6 20 20 44 21 8 0 4 -6 -10 -13z m-1640
-11 c0 -2 -10 -10 -22 -16 -21 -11 -22 -11 -9 4 13 16 31 23 31 12z m1744 -10
c3 -8 13 -15 23 -15 14 0 12 -5 -11 -25 -34 -29 -37 -30 -30 -10 4 8 2 15 -4
15 -6 0 -9 8 -7 18 2 9 4 20 4 25 2 13 19 7 25 -8z m-3660 -61 c3 -8 2 -12 -4
-9 -6 3 -10 10 -10 16 0 14 7 11 14 -7z m3626 6 c0 -5 -5 -10 -11 -10 -5 0 -7
5 -4 10 3 6 8 10 11 10 2 0 4 -4 4 -10z m-2440 -7 c-2 -26 -48 -188 -53 -185
-4 1 -16 2 -26 2 -30 0 -55 29 -40 46 7 8 9 17 5 21 -3 3 -6 1 -6 -6 0 -7 -5
-9 -10 -6 -13 8 15 48 67 98 34 34 64 48 63 30z m835 -13 c-3 -5 -11 -10 -16
-10 -6 0 -7 5 -4 10 3 6 11 10 16 10 6 0 7 -4 4 -10z m1622 -27 c0 -9 -4 -10
-14 -2 -7 6 -13 12 -13 14 0 1 6 2 13 2 8 0 14 -6 14 -14z m-67 -14 c0 -6 -7
-8 -16 -5 -12 5 -15 2 -10 -9 3 -9 2 -13 -4 -10 -6 3 -10 1 -10 -6 0 -7 -2
-10 -5 -8 -2 3 -2 15 2 27 5 22 43 32 43 11z m-1121 -13 c11 -14 6 -15 -27 -7
-4 1 8 21 12 21 2 0 9 -6 15 -14z m1171 -56 c13 -9 13 -10 0 -10 -13 0 -13 -1
0 -10 22 -14 -6 -13 -32 1 -17 9 -18 13 -7 20 18 11 21 11 39 -1z m-3352 -17
c6 -19 -25 -16 -32 3 -4 11 -1 14 11 12 9 -2 18 -9 21 -15z m3277 -1 c-3 -3
-11 0 -18 7 -9 10 -8 11 6 5 10 -3 15 -9 12 -12z m-3689 -4 c4 -6 2 -14 -4
-16 -7 -2 -10 -7 -8 -10 2 -4 -17 -8 -43 -8 -46 -2 -46 -2 -11 7 64 18 66 19
50 29 -9 6 -10 10 -3 10 6 0 15 -5 19 -12z m1086 -113 c3 3 11 -1 18 -10 7 -8
20 -15 30 -15 10 0 28 -8 40 -18 18 -15 23 -30 25 -84 4 -86 32 -150 73 -167
22 -9 36 -10 50 -2 12 6 39 11 61 11 38 0 40 1 32 23 -5 12 -16 21 -24 21 -18
-2 -12 22 8 30 17 6 30 -11 30 -39 0 -15 8 -21 32 -23 23 -2 34 -10 39 -25 4
-12 15 -35 26 -50 21 -30 20 -68 -5 -117 -9 -18 -21 -25 -44 -26 -18 0 -30 3
-27 8 3 4 -4 8 -15 8 -11 0 -23 5 -26 10 -3 6 -15 10 -26 10 -10 0 -19 5 -19
10 0 6 -6 10 -13 10 -7 0 -23 9 -35 20 -12 11 -31 22 -44 23 -12 2 -24 10 -26
17 -3 7 0 10 7 6 6 -4 11 -3 11 2 0 6 -7 12 -15 16 -8 3 -14 0 -12 -6 1 -6 -4
-13 -10 -15 -7 -3 -13 0 -13 7 0 6 -5 8 -10 5 -16 -10 -96 62 -125 111 -56 96
-75 179 -50 218 10 14 14 26 10 26 -4 0 -2 7 6 16 12 14 14 14 24 0 7 -9 14
-13 17 -11z m1748 4 c0 -5 4 -8 9 -5 9 6 21 -16 21 -37 0 -9 -2 -9 -8 -1 -4 6
-17 16 -30 23 -12 7 -20 16 -17 22 8 12 25 12 25 -2z m-1459 -37 c-6 -2 -9 -7
-7 -11 8 -12 -11 -34 -23 -27 -16 10 -13 29 3 23 10 -4 13 -1 9 8 -3 8 -9 12
-14 9 -5 -3 -9 -1 -9 5 0 15 23 20 39 8 9 -8 10 -12 2 -15z m159 -3 c0 -13 -4
-18 -12 -13 -8 5 -9 2 -5 -10 4 -9 3 -15 -2 -11 -6 3 -9 14 -8 25 1 10 5 16
11 13 5 -4 7 1 3 11 -4 10 -3 15 3 11 6 -3 10 -15 10 -26z m-91 -12 c-10 -18
-12 -19 -21 -4 -11 21 -2 38 17 31 12 -5 12 -10 4 -27z m-1303 4 c0 -22 -37
-24 -44 -2 -3 10 0 12 11 8 9 -3 19 -2 22 3 9 14 11 12 11 -9z m2679 -1 c3 -5
1 -10 -4 -10 -6 0 -11 5 -11 10 0 6 2 10 4 10 3 0 8 -4 11 -10z m-2177 -115
c-3 -3 -9 2 -12 12 -6 14 -5 15 5 6 7 -7 10 -15 7 -18z m887 1 c24 -36 10 -56
-39 -56 -23 0 -50 6 -61 14 -17 12 -15 15 26 39 54 33 55 33 74 3z m-1418 -18
c-3 -8 -6 -5 -6 6 -1 11 2 17 5 13 3 -3 4 -12 1 -19z m2714 -5 c-12 -20 -14
-14 -5 12 4 9 9 14 11 11 3 -2 0 -13 -6 -23z m-2579 -77 c2 -20 7 -36 11 -36
5 0 5 -5 2 -11 -10 -15 -45 20 -45 45 0 18 2 19 11 6 8 -12 10 -8 6 15 -3 17
-8 39 -12 50 -4 12 0 9 9 -7 9 -15 17 -43 18 -62z m2873 55 c-16 -16 -34 -26
-39 -24 -4 3 -2 9 5 14 11 7 11 9 1 9 -7 0 -10 5 -6 11 4 8 9 7 16 -2 7 -12
11 -11 21 4 7 9 16 17 22 17 5 0 -3 -13 -20 -29z m-315 9 c0 -5 -2 -10 -4 -10
-3 0 -8 5 -11 10 -3 6 -1 10 4 10 6 0 11 -4 11 -10z m107 -2 c10 -17 16 -65 7
-55 -4 4 -8 17 -9 30 -2 12 -8 21 -14 20 -6 -2 -11 2 -11 7 0 14 17 12 27 -2z
m-2697 -26 c0 -15 -2 -15 -10 -2 -13 20 -13 33 0 25 6 -3 10 -14 10 -23z
m2794 0 c3 -5 -1 -9 -9 -9 -8 0 -12 4 -9 9 3 4 7 8 9 8 2 0 6 -4 9 -8z m-2917
-24 c-3 -8 -6 -5 -6 6 -1 11 2 17 5 13 3 -3 4 -12 1 -19z m133 -113 c0 -5 -5
-3 -10 5 -5 8 -10 20 -10 25 0 6 5 3 10 -5 5 -8 10 -19 10 -25z m50 -57 c-1
-34 -3 -39 -11 -26 -8 15 -3 68 7 68 2 0 4 -19 4 -42z m17 -60 c-3 -8 -6 -5
-6 6 -1 11 2 17 5 13 3 -3 4 -12 1 -19z m8 -56 c-3 -3 -11 0 -18 7 -9 10 -8
11 6 5 10 -3 15 -9 12 -12z m726 -649 c13 -17 13 -17 -6 -3 -11 8 -22 16 -24
17 -2 2 0 3 6 3 6 0 17 -8 24 -17z"/>
<path d="M1927 3309 c7 -7 15 -10 18 -7 3 3 -2 9 -12 12 -14 6 -15 5 -6 -5z"/>
<path d="M1520 3256 c0 -2 7 -7 16 -10 8 -3 12 -2 9 4 -6 10 -25 14 -25 6z"/>
<path d="M1510 3136 c0 -2 17 -23 39 -45 44 -46 64 -45 23 1 -25 28 -62 54
-62 44z"/>
<path d="M1680 3117 c0 -5 8 -19 18 -31 14 -18 20 -20 29 -10 9 9 9 15 -3 25
-12 10 -13 9 -8 -7 4 -14 1 -13 -15 6 -11 14 -21 21 -21 17z"/>
<path d="M1620 3093 c0 -4 5 -15 10 -23 8 -13 10 -13 10 2 0 9 -4 20 -10 23
-5 3 -10 3 -10 -2z"/>
<path d="M1179 3032 c-3 -20 -2 -29 4 -23 5 5 7 19 5 32 -3 20 -5 19 -9 -9z"/>
<path d="M1784 3026 c-5 -13 31 -96 41 -96 3 0 -2 17 -11 38 -9 20 -16 45 -16
55 1 21 -7 22 -14 3z"/>
<path d="M1202 2950 c0 -14 2 -19 5 -12 2 6 2 18 0 25 -3 6 -5 1 -5 -13z"/>
<path d="M1211 2874 c0 -11 3 -14 6 -6 3 7 2 16 -1 19 -3 4 -6 -2 -5 -13z"/>
<path d="M1171 2824 c0 -11 3 -14 6 -6 3 7 2 16 -1 19 -3 4 -6 -2 -5 -13z"/>
<path d="M1762 2795 c0 -16 2 -22 5 -12 2 9 2 23 0 30 -3 6 -5 -1 -5 -18z"/>
<path d="M1663 2733 c0 -49 3 -70 8 -58 11 27 11 135 0 135 -4 0 -8 -35 -8
-77z"/>
<path d="M1301 2704 c0 -11 3 -14 6 -6 3 7 2 16 -1 19 -3 4 -6 -2 -5 -13z"/>
<path d="M1288 2655 c-4 -16 -9 -39 -12 -50 -4 -11 1 -5 9 14 9 18 14 41 13
50 -2 9 -7 3 -10 -14z"/>
<path d="M1403 2583 c-13 -31 -21 -58 -19 -60 2 -2 14 21 26 52 12 31 21 58
19 60 -3 2 -14 -22 -26 -52z"/>
<path d="M1672 2610 c0 -14 2 -19 5 -12 2 6 2 18 0 25 -3 6 -5 1 -5 -13z"/>
<path d="M1231 2564 c0 -11 3 -14 6 -6 3 7 2 16 -1 19 -3 4 -6 -2 -5 -13z"/>
<path d="M1256 2563 c-6 -14 -5 -15 5 -6 7 7 10 15 7 18 -3 3 -9 -2 -12 -12z"/>
<path d="M1360 2548 c-5 -13 -17 -34 -26 -48 l-16 -25 21 25 c14 16 19 19 15
7 -4 -12 -2 -16 7 -12 8 3 15 21 16 40 2 40 -3 44 -17 13z"/>
<path d="M1732 2510 c0 -19 2 -27 5 -17 2 9 2 25 0 35 -3 9 -5 1 -5 -18z"/>
<path d="M1320 2451 c-12 -18 -16 -32 -10 -36 13 -8 32 4 25 16 -4 5 -2 9 2 9
5 0 9 9 10 20 2 27 -2 25 -27 -9z"/>
<path d="M1274 2448 l-19 -23 23 19 c21 18 27 26 19 26 -2 0 -12 -10 -23 -22z"/>
<path d="M721 2804 c0 -11 3 -14 6 -6 3 7 2 16 -1 19 -3 4 -6 -2 -5 -13z"/>
<path d="M2110 2339 c0 -5 5 -7 10 -4 6 3 10 8 10 11 0 2 -4 4 -10 4 -5 0 -10
-5 -10 -11z"/>
<path d="M2183 2203 c-7 -2 -13 -9 -13 -15 0 -6 7 -4 17 3 15 12 16 12 10 -4
-5 -13 -3 -17 5 -15 7 3 14 12 16 21 3 17 -10 20 -35 10z"/>
<path d="M2132 2134 c-7 -8 -8 -14 -3 -14 10 0 25 19 20 25 -2 1 -10 -3 -17
-11z"/>
<path d="M30 2256 c0 -2 7 -9 15 -16 9 -7 15 -8 15 -2 0 5 -7 12 -15 16 -8 3
-15 4 -15 2z"/>
<path d="M1455 2100 c-11 -5 -40 -9 -64 -9 -28 -1 -41 -5 -35 -10 10 -11 94 2
122 18 21 13 5 13 -23 1z"/>
<path d="M1085 1830 c3 -5 8 -10 11 -10 2 0 4 5 4 10 0 6 -5 10 -11 10 -5 0
-7 -4 -4 -10z"/>
<path d="M1170 1756 c0 -2 7 -9 15 -16 9 -7 15 -8 15 -2 0 5 -7 12 -15 16 -8
3 -15 4 -15 2z"/>
<path d="M3176 2002 c-2 -4 4 -9 15 -9 11 -1 17 2 14 8 -7 11 -22 12 -29 1z"/>
<path d="M3051 1978 c0 -21 1 -22 8 -3 8 18 9 18 14 2 4 -15 5 -15 3 -1 -2 27
-26 29 -25 2z"/>
<path d="M3110 1978 c0 -9 5 -20 11 -23 17 -11 18 -2 3 19 -12 17 -14 17 -14
4z"/>
<path d="M1380 1306 c0 -2 8 -10 18 -17 15 -13 16 -12 3 4 -13 16 -21 21 -21
13z"/>
<path d="M3265 4040 c-33 -8 -31 -9 33 -15 29 -2 49 -11 63 -27 11 -13 18 -17
14 -10 -3 6 -1 12 4 12 6 0 11 -5 11 -11 0 -5 4 -8 9 -4 5 3 17 -5 25 -17 9
-12 16 -17 16 -11 0 6 -11 20 -25 31 -18 14 -21 22 -13 26 7 3 0 3 -17 0 -21
-4 -26 -3 -16 4 10 7 6 11 -15 14 -16 3 -36 8 -44 10 -8 3 -28 2 -45 -2z"/>
<path d="M2820 4010 c0 -12 8 -12 35 0 18 8 17 9 -7 9 -16 1 -28 -3 -28 -9z"/>
<path d="M3323 3998 c15 -5 25 -14 21 -19 -3 -5 0 -9 5 -9 6 0 11 4 11 8 0 15
-24 32 -44 31 -17 0 -16 -2 7 -11z"/>
<path d="M2820 3980 c-8 -5 -10 -10 -5 -10 6 0 17 5 25 10 8 5 11 10 5 10 -5
0 -17 -5 -25 -10z"/>
<path d="M3105 3980 c-3 -6 1 -7 9 -4 18 7 21 14 7 14 -6 0 -13 -4 -16 -10z"/>
<path d="M3157 3969 c7 -7 15 -10 18 -7 3 3 -2 9 -12 12 -14 6 -15 5 -6 -5z"/>
<path d="M3398 3953 c7 -3 16 -2 19 1 4 3 -2 6 -13 5 -11 0 -14 -3 -6 -6z"/>
<path d="M3380 3853 c0 -10 54 -23 62 -15 6 6 -4 11 -26 14 -20 2 -36 3 -36 1z"/>
<path d="M3466 3848 c3 -4 9 -8 15 -8 5 0 9 4 9 8 0 5 -7 9 -15 9 -8 0 -12 -4
-9 -9z"/>
<path d="M3453 3828 c-2 -5 7 -8 21 -8 14 0 29 0 33 -1 4 0 9 4 11 10 4 12
-57 10 -65 -1z"/>
<path d="M3346 3822 c-3 -5 1 -9 9 -9 8 0 12 4 9 9 -3 4 -7 8 -9 8 -2 0 -6 -4
-9 -8z"/>
<path d="M3298 3813 c7 -3 16 -2 19 1 4 3 -2 6 -13 5 -11 0 -14 -3 -6 -6z"/>
<path d="M3385 3810 c-8 -12 -8 -12 35 -15 19 -1 46 -5 60 -10 21 -7 22 -6 9
7 -19 20 -79 34 -79 19 0 -6 -5 -11 -11 -11 -5 0 -7 5 -4 10 3 6 4 10 1 10 -3
0 -8 -4 -11 -10z"/>
<path d="M3532 3769 c9 -9 15 -19 12 -22 -3 -3 4 -3 17 0 l23 6 -24 9 c-13 5
-29 12 -35 16 -6 4 -3 0 7 -9z"/>
<path d="M3620 3766 c0 -3 9 -10 20 -16 11 -6 20 -8 20 -6 0 3 -9 10 -20 16
-11 6 -20 8 -20 6z"/>
<path d="M3335 3740 l-30 -6 25 -8 c14 -4 39 -9 55 -11 27 -3 28 -2 10 7 -11
6 -22 14 -25 18 -3 3 -18 3 -35 0z"/>
<path d="M3705 3650 c-3 -5 4 -14 16 -20 15 -8 19 -9 15 -1 -9 14 0 14 27 0
21 -11 21 -11 5 7 -18 21 -54 29 -63 14z"/>
<path d="M3547 3629 c7 -7 15 -10 18 -7 3 3 -2 9 -12 12 -14 6 -15 5 -6 -5z"/>
<path d="M3420 3556 c0 -2 7 -7 16 -10 8 -3 12 -2 9 4 -6 10 -25 14 -25 6z"/>
<path d="M3483 3543 c9 -2 23 -2 30 0 6 3 -1 5 -18 5 -16 0 -22 -2 -12 -5z"/>
<path d="M3256 3504 c-5 -14 -4 -15 9 -4 17 14 19 20 6 20 -5 0 -12 -7 -15
-16z"/>
<path d="M3578 3513 c7 -3 16 -2 19 1 4 3 -2 6 -13 5 -11 0 -14 -3 -6 -6z"/>
<path d="M1020 3450 c8 -5 29 -10 47 -10 17 0 34 -6 36 -12 4 -10 6 -10 6 -1
1 8 12 11 34 8 29 -4 29 -4 -8 9 -47 17 -139 21 -115 6z"/>
<path d="M1048 3423 c7 -3 16 -2 19 1 4 3 -2 6 -13 5 -11 0 -14 -3 -6 -6z"/>
<path d="M1380 3421 c0 -11 26 -22 34 -14 3 3 3 10 0 14 -7 12 -34 11 -34 0z"/>
<path d="M460 3400 c0 -5 5 -10 11 -10 5 0 7 5 4 10 -3 6 -8 10 -11 10 -2 0
-4 -4 -4 -10z"/>
<path d="M3396 3377 c3 -10 9 -15 12 -12 3 3 0 11 -7 18 -10 9 -11 8 -5 -6z"/>
<path d="M1045 3370 c-4 -6 9 -11 29 -11 20 -1 41 -2 48 -3 6 -1 13 6 15 14 3
11 2 11 -4 3 -6 -8 -14 -9 -23 -3 -20 13 -57 13 -65 0z"/>
<path d="M3080 3370 c-8 -5 -12 -11 -9 -14 2 -3 11 -1 19 4 8 5 12 11 9 14 -2
3 -11 1 -19 -4z"/>
<path d="M3820 3326 c0 -7 9 -25 21 -40 27 -34 15 -34 -18 2 -17 18 -22 20
-15 7 5 -11 22 -31 37 -43 21 -19 30 -21 39 -12 8 9 8 14 -1 17 -7 3 -13 13
-13 24 0 10 -4 19 -9 19 -5 0 -11 9 -14 20 -6 22 -27 27 -27 6z"/>
<path d="M770 3320 c0 -5 5 -10 10 -10 6 0 10 5 10 10 0 6 -4 10 -10 10 -5 0
-10 -4 -10 -10z"/>
<path d="M1102 3315 c10 -11 48 -14 48 -4 0 5 -12 9 -27 9 -14 0 -24 -2 -21
-5z"/>
<path d="M3311 3315 c0 -5 7 -26 14 -45 9 -23 14 -28 14 -15 0 11 -6 31 -14
45 -8 14 -14 21 -14 15z"/>
<path d="M1008 3303 c6 -2 18 -2 25 0 6 3 1 5 -13 5 -14 0 -19 -2 -12 -5z"/>
<path d="M1210 3301 c0 -6 4 -13 10 -16 6 -3 7 1 4 9 -7 18 -14 21 -14 7z"/>
<path d="M882 3284 c-14 -16 -5 -18 17 -5 7 5 9 11 5 14 -5 3 -15 -1 -22 -9z"/>
<path d="M3001 3284 c0 -11 3 -14 6 -6 3 7 2 16 -1 19 -3 4 -6 -2 -5 -13z"/>
<path d="M3615 3290 c3 -5 8 -10 11 -10 2 0 4 5 4 10 0 6 -5 10 -11 10 -5 0
-7 -4 -4 -10z"/>
<path d="M3301 3274 c0 -11 3 -14 6 -6 3 7 2 16 -1 19 -3 4 -6 -2 -5 -13z"/>
<path d="M2968 3253 c-10 -2 -18 -9 -18 -14 0 -6 7 -6 18 -1 9 5 24 12 32 15
13 5 13 5 0 5 -8 0 -23 -2 -32 -5z"/>
<path d="M284 3235 c11 -8 26 -15 33 -15 22 0 14 8 -19 19 -30 10 -31 9 -14
-4z"/>
<path d="M3625 3240 c3 -5 8 -10 11 -10 2 0 4 5 4 10 0 6 -5 10 -11 10 -5 0
-7 -4 -4 -10z"/>
<path d="M716 3228 c3 -5 10 -6 15 -3 13 9 11 12 -6 12 -8 0 -12 -4 -9 -9z"/>
<path d="M940 3205 c-10 -12 -16 -13 -27 -4 -16 14 -68 -4 -59 -20 3 -5 -1
-11 -9 -14 -9 -4 -12 -1 -8 9 7 19 -11 18 -27 -1 -7 -8 -18 -15 -25 -15 -6 0
-27 -21 -46 -47 -49 -67 -50 -70 -33 -70 9 0 20 10 26 21 11 26 75 72 110 81
15 4 34 15 44 26 17 19 40 27 30 10 -3 -5 1 -12 10 -15 8 -3 13 -2 10 3 -7 10
30 19 56 13 14 -3 16 -8 8 -22 -15 -28 14 -19 50 15 31 30 42 25 13 -7 -27
-30 -9 -20 22 11 28 30 28 30 4 28 -13 -1 -36 -15 -51 -32 -15 -16 -28 -25
-28 -18 0 6 5 15 10 18 6 3 10 11 10 16 0 6 -4 7 -10 4 -5 -3 -10 -1 -10 6 0
9 -3 9 -14 0 -10 -9 -15 -8 -20 4 -7 19 -20 19 -36 0z"/>
<path d="M3336 3195 c-3 -8 -1 -15 4 -15 6 0 10 7 10 15 0 8 -2 15 -4 15 -2 0
-6 -7 -10 -15z"/>
<path d="M3588 3165 c49 -62 92 -102 92 -87 0 6 -8 15 -17 21 -10 5 -17 13
-15 18 1 4 -3 8 -8 8 -6 0 -29 20 -51 45 l-41 45 40 -50z"/>
<path d="M3870 3196 c0 -8 4 -17 8 -20 4 -2 8 4 8 15 0 10 -4 19 -8 19 -4 0
-8 -6 -8 -14z"/>
<path d="M3676 3178 c5 -7 2 -9 -8 -5 -20 7 -18 -18 2 -36 12 -10 12 -9 1 6
-7 9 -9 17 -3 17 15 0 35 -28 27 -39 -3 -7 0 -8 9 -5 9 3 16 1 16 -5 0 -6 7
-11 16 -11 14 0 14 -3 4 -15 -7 -9 -10 -18 -6 -22 3 -3 6 0 6 7 0 9 5 7 15 -6
8 -10 15 -15 15 -10 0 5 12 -1 27 -15 20 -18 24 -19 13 -4 -19 26 -32 35 -42
29 -4 -3 -8 3 -8 14 0 10 -13 31 -30 47 -16 16 -30 34 -30 41 0 6 -7 15 -16
18 -10 4 -13 2 -8 -6z"/>
<path d="M4145 3120 c-3 -6 1 -7 9 -4 18 7 21 14 7 14 -6 0 -13 -4 -16 -10z"/>
<path d="M994 3093 c-2 -27 -1 -27 14 3 8 15 8 21 -1 21 -7 0 -13 -11 -13 -24z"/>
<path d="M4168 3104 c-16 -8 -28 -22 -28 -30 0 -11 -6 -13 -21 -9 -19 6 -21 4
-16 -14 3 -13 1 -21 -6 -19 -38 7 -79 -34 -57 -56 13 -13 13 -36 0 -36 -5 0
-10 7 -10 16 0 11 -5 14 -17 9 -33 -14 -93 -17 -93 -6 0 6 -7 11 -15 11 -14 0
-13 -3 1 -25 15 -22 43 -38 30 -16 -3 5 10 11 30 13 42 5 59 -8 81 -61 8 -20
22 -40 31 -47 27 -20 88 6 78 33 -6 15 10 18 19 3 3 -6 -9 -24 -27 -40 -30
-28 -42 -34 -60 -31 -5 0 -8 -4 -8 -9 0 -5 7 -10 15 -10 8 0 15 -3 15 -7 0
-15 -17 -34 -26 -31 -5 2 -9 -1 -9 -7 -1 -15 27 -6 54 18 13 12 21 16 17 10
-4 -7 -2 -13 4 -13 7 0 14 9 17 20 4 16 8 18 19 9 11 -9 14 -9 14 0 0 7 5 9
10 6 12 -7 14 -26 3 -23 -18 5 -51 -14 -62 -35 -7 -12 -30 -33 -52 -47 -42
-26 -48 -39 -52 -107 -1 -24 -5 -43 -8 -43 -3 0 -13 -19 -23 -42 -10 -24 -24
-56 -32 -72 -12 -24 -12 -26 1 -16 11 9 15 10 15 1 0 -7 4 -9 10 -6 18 11 51
14 45 4 -4 -5 -11 -7 -16 -4 -5 4 -9 1 -9 -5 0 -6 -4 -8 -10 -5 -5 3 -10 2
-10 -3 0 -6 -9 -8 -21 -5 -15 4 -27 -2 -44 -23 -26 -32 -23 -54 4 -30 9 9 28
17 42 18 19 2 24 -1 23 -19 0 -13 5 -23 13 -23 7 0 13 -5 13 -11 0 -5 -4 -7
-10 -4 -5 3 -10 -1 -10 -9 0 -9 4 -16 9 -16 15 0 22 30 11 49 -14 27 5 40 46
31 19 -4 34 -5 34 -2 0 3 6 -3 14 -14 13 -16 18 -17 35 -6 25 15 51 16 51 1 0
-6 8 -8 18 -6 54 15 73 17 67 7 -9 -15 24 -25 38 -11 21 21 34 12 29 -21 -6
-44 -20 -62 -38 -47 -11 9 -14 8 -14 -5 0 -9 -7 -16 -15 -16 -8 0 -15 -4 -15
-10 0 -5 -5 -10 -11 -10 -6 0 -9 7 -5 15 7 19 -3 19 -28 0 -24 -18 -40 -19
-30 -2 4 6 -5 -1 -19 -16 -26 -27 -39 -53 -15 -29 15 15 32 16 23 2 -9 -14 8
-12 24 3 11 9 12 9 7 0 -4 -7 -23 -20 -42 -29 -19 -9 -33 -19 -30 -21 2 -3 13
0 23 6 11 5 37 10 59 10 43 1 61 3 118 15 l38 9 -6 76 c-4 42 -7 86 -6 99 0
13 -4 21 -9 17 -5 -3 -12 -1 -16 5 -4 7 -12 7 -25 0 -16 -9 -18 -8 -14 5 4 9
14 15 23 14 37 -3 43 1 37 24 -4 12 -8 49 -10 82 -7 109 -45 268 -69 289 -16
14 -17 18 -5 13 11 -4 16 -2 13 6 -34 111 -58 177 -65 177 -4 0 -7 11 -7 25 0
34 -6 38 -50 38 -37 -1 -37 -1 -9 8 16 4 33 6 38 3 7 -5 -16 64 -25 72 -1 1
-14 -4 -29 -12z m25 -41 c-7 -2 -19 -2 -25 0 -7 3 -2 5 12 5 14 0 19 -2 13 -5z
m31 -97 c-7 -18 -28 -26 -77 -31 -23 -3 -35 -1 -32 5 3 6 19 10 36 10 16 0 29
4 29 10 0 5 6 7 14 4 8 -3 17 -1 21 5 9 16 15 13 9 -3z m-129 -86 c-3 -5 -12
-10 -18 -10 -7 0 -6 4 3 10 19 12 23 12 15 0z m94 -49 c7 -5 11 -13 7 -19 -9
-14 -42 -21 -57 -11 -11 7 -10 9 4 9 9 0 17 7 17 15 0 17 9 19 29 6z m76 -71
c-3 -5 -13 -10 -21 -10 -8 0 -14 5 -14 10 0 6 9 10 21 10 11 0 17 -4 14 -10z
m-178 -146 c-3 -3 -12 -4 -19 -1 -8 3 -5 6 6 6 11 1 17 -2 13 -5z m78 -24 c-3
-5 -14 -10 -23 -9 -14 0 -13 2 3 9 27 11 27 11 20 0z m195 -124 c0 -3 -4 -8
-10 -11 -5 -3 -10 -1 -10 4 0 6 5 11 10 11 6 0 10 -2 10 -4z m-45 -16 c3 -6
-4 -10 -17 -10 -18 0 -20 2 -8 10 19 12 18 12 25 0z m-210 -50 c-3 -5 3 -13
12 -19 10 -6 13 -11 6 -11 -13 0 -26 17 -29 38 -1 6 2 10 7 6 5 -3 7 -9 4 -14z
m198 -21 c-4 -15 -9 -17 -17 -9 -8 8 -7 13 4 20 8 5 16 10 17 10 0 0 -1 -9 -4
-21z m-223 1 c0 -5 -5 -10 -11 -10 -5 0 -7 5 -4 10 3 6 8 10 11 10 2 0 4 -4 4
-10z m190 -11 c0 -11 -27 -12 -34 -1 -2 4 4 9 15 9 10 1 19 -2 19 -8z"/>
<path d="M470 3099 c0 -6 -4 -7 -10 -4 -6 3 -10 -5 -10 -19 0 -23 -3 -25 -30
-19 -35 7 -40 -9 -7 -25 l22 -11 -22 0 c-18 -1 -20 -5 -14 -28 9 -35 34 -40
63 -14 12 12 29 21 37 22 12 0 12 2 3 6 -10 4 -8 11 9 29 12 12 19 29 16 37
-3 8 -1 19 4 24 6 6 -3 10 -26 11 -19 1 -35 -3 -35 -9z m9 -76 c1 -13 -4 -23
-10 -23 -5 0 -7 5 -4 10 3 6 -1 10 -10 10 -10 0 -14 5 -11 13 3 6 9 21 13 31
6 20 6 20 14 0 4 -10 8 -29 8 -41z"/>
<path d="M945 3100 c-4 -6 1 -7 11 -3 14 5 16 3 10 -13 -5 -14 -4 -16 5 -7 12
12 5 33 -11 33 -5 0 -12 -4 -15 -10z"/>
<path d="M3876 3097 c3 -10 9 -15 12 -12 3 3 0 11 -7 18 -10 9 -11 8 -5 -6z"/>
<path d="M3699 3092 c7 -5 10 -15 7 -21 -4 -6 -2 -11 4 -11 17 0 8 33 -10 37
-12 4 -13 3 -1 -5z"/>
<path d="M3675 3049 c-4 -6 -4 -13 -1 -16 3 -4 6 -1 6 6 0 7 5 9 12 5 7 -4 8
-3 4 4 -9 15 -13 15 -21 1z"/>
<path d="M335 3039 c-10 -15 3 -25 16 -12 7 7 7 13 1 17 -6 3 -14 1 -17 -5z"/>
<path d="M3644 3018 c13 -34 13 -38 0 -38 -8 0 -12 4 -9 10 3 5 0 7 -9 4 -8
-3 -12 -12 -9 -20 3 -8 8 -12 11 -10 3 3 11 1 19 -5 7 -6 13 -8 13 -4 0 4 7 2
15 -5 11 -9 12 -16 5 -25 -8 -9 -8 -15 -1 -20 14 -8 34 -46 24 -44 -18 3 -33
-2 -33 -10 0 -5 20 -8 45 -5 32 3 47 0 51 -9 2 -7 17 -14 32 -15 26 -2 27 -1
24 48 -2 28 -8 47 -13 44 -5 -3 -10 0 -10 5 -3 20 -5 26 -17 47 -6 12 -9 23
-7 26 3 3 -2 5 -9 5 -11 0 -13 -5 -5 -19 5 -10 7 -18 4 -18 -3 0 2 -11 11 -25
8 -13 13 -28 10 -34 -3 -5 1 -11 9 -15 8 -3 15 -10 15 -16 0 -14 -33 18 -36
34 -7 40 -36 86 -54 86 -11 0 -20 -5 -20 -12 0 -6 -3 -8 -7 -4 -5 4 1 14 11
22 11 8 16 15 10 15 -5 1 -19 3 -32 4 -13 1 -30 11 -38 21 -13 17 -13 15 0
-18z m89 -75 c-3 -7 -9 -10 -14 -7 -14 8 -11 21 5 21 8 0 12 -6 9 -14z"/>
<path d="M3710 3041 c0 -5 7 -12 16 -15 14 -5 15 -4 4 9 -14 17 -20 19 -20 6z"/>
<path d="M3850 3033 c0 -18 32 -32 54 -23 23 8 9 19 -19 14 -11 -1 -23 2 -27
9 -6 9 -8 9 -8 0z"/>
<path d="M3935 3020 c-4 -12 -2 -27 4 -34 15 -18 58 -17 65 0 3 8 0 14 -6 14
-6 0 -3 9 7 20 10 11 15 20 11 20 -5 0 -20 -13 -35 -29 l-27 -29 4 29 c5 33
-13 40 -23 9z"/>
<path d="M911 2994 c0 -11 3 -14 6 -6 3 7 2 16 -1 19 -3 4 -6 -2 -5 -13z"/>
<path d="M950 3001 c0 -7 -3 -10 -7 -8 -5 3 -8 -6 -8 -19 0 -13 1 -24 3 -24 6
0 22 53 17 58 -3 3 -5 0 -5 -7z"/>
<path d="M3832 2988 c7 -15 15 -23 17 -17 2 6 -4 18 -13 27 -15 15 -15 15 -4
-10z"/>
<path d="M994 2959 c1 -21 4 -39 9 -39 10 0 9 68 -1 74 -5 3 -8 -13 -8 -35z"/>
<path d="M135 2949 c-4 -6 -5 -12 -2 -15 2 -3 7 2 10 11 7 17 1 20 -8 4z"/>
<path d="M3880 2943 c0 -6 8 -17 18 -24 16 -13 16 -13 2 6 -8 11 -16 22 -17
24 -2 2 -3 0 -3 -6z"/>
<path d="M924 2902 c-2 -37 -2 -37 8 -9 6 16 6 33 2 37 -5 5 -10 -7 -10 -28z"/>
<path d="M3637 2913 c-3 -5 -2 -15 2 -22 5 -7 11 -9 14 -4 3 5 2 15 -2 22 -5
7 -11 9 -14 4z"/>
<path d="M3865 2895 c1 -14 6 -29 10 -33 4 -4 4 4 0 17 -6 18 -4 22 6 15 12
-6 12 -5 0 9 -18 22 -20 22 -16 -8z"/>
<path d="M115 2900 c-3 -5 -3 -15 1 -21 6 -11 23 6 24 24 0 10 -18 9 -25 -3z"/>
<path d="M190 2900 c0 -5 10 -10 21 -10 18 0 19 -2 9 -15 -10 -12 -9 -15 4
-15 15 0 34 26 25 34 -12 10 -59 15 -59 6z"/>
<path d="M665 2889 c-4 -6 -5 -12 -2 -15 2 -3 7 2 10 11 7 17 1 20 -8 4z"/>
<path d="M620 2870 c-6 -10 -12 -47 -15 -82 -3 -50 -3 -54 3 -18 4 25 11 51
15 58 10 15 19 62 13 62 -3 0 -10 -9 -16 -20z"/>
<path d="M180 2860 c0 -6 -4 -8 -10 -5 -5 3 -10 1 -10 -5 0 -7 6 -10 14 -7 8
3 17 1 19 -6 2 -7 8 -9 12 -5 4 4 0 14 -9 23 -9 9 -16 12 -16 5z"/>
<path d="M3953 2839 c-33 -21 -59 -74 -42 -84 5 -4 9 -1 9 4 0 6 9 11 21 11
27 0 79 -52 80 -82 1 -20 2 -19 10 7 23 75 14 133 -23 156 -18 12 -19 11 -55
-12z"/>
<path d="M3872 2824 c-9 -19 -17 -22 -49 -19 -27 3 -31 2 -13 -3 25 -7 32 -23
18 -38 -4 -4 -13 -2 -20 3 -9 7 -22 5 -43 -8 -31 -20 -25 -24 30 -20 19 1 19
1 2 -10 -10 -6 -28 -9 -39 -6 -19 5 -19 4 3 -20 20 -20 25 -22 27 -8 3 13 6
14 20 3 13 -11 14 -11 8 1 -6 9 -5 12 5 9 8 -3 13 -12 11 -19 -2 -9 0 -11 6
-4 6 6 12 19 14 29 1 11 11 20 21 22 25 3 35 14 14 14 -9 0 -17 5 -17 10 0 6
5 9 11 8 6 -2 15 7 20 20 5 14 5 21 0 17 -5 -3 -12 -1 -16 5 -3 6 4 14 16 18
22 9 22 9 2 14 -15 4 -24 -1 -31 -18z m15 -46 c-3 -8 -6 -5 -6 6 -1 11 2 17 5
13 3 -3 4 -12 1 -19z m-17 2 c0 -5 -5 -10 -11 -10 -5 0 -7 5 -4 10 3 6 8 10
11 10 2 0 4 -4 4 -10z m-15 -30 c-3 -5 -12 -10 -18 -10 -7 0 -6 4 3 10 19 12
23 12 15 0z"/>
<path d="M3728 2833 c7 -3 16 -2 19 1 4 3 -2 6 -13 5 -11 0 -14 -3 -6 -6z"/>
<path d="M90 2816 c0 -8 5 -18 10 -21 6 -3 10 1 10 9 0 8 -4 18 -10 21 -5 3
-10 -1 -10 -9z"/>
<path d="M144 2818 c-3 -4 6 -8 20 -8 14 0 26 4 26 9 0 11 -39 10 -46 -1z"/>
<path d="M3707 2810 c4 -15 13 -20 34 -18 24 2 32 12 11 13 -4 1 -17 6 -29 13
-19 10 -20 9 -16 -8z"/>
<path d="M3256 2812 c-3 -5 1 -9 9 -9 8 0 12 4 9 9 -3 4 -7 8 -9 8 -2 0 -6 -4
-9 -8z"/>
<path d="M920 2779 c0 -11 4 -18 10 -14 5 3 7 12 3 20 -7 21 -13 19 -13 -6z"/>
<path d="M80 2779 c0 -8 7 -23 15 -33 11 -14 15 -16 15 -5 0 8 -7 23 -15 33
-11 14 -15 16 -15 5z"/>
<path d="M3730 2770 c-13 -9 -13 -10 0 -10 8 0 22 5 30 10 13 9 13 10 0 10 -8
0 -22 -5 -30 -10z"/>
<path d="M239 2759 c0 -2 -2 -12 -4 -21 -2 -10 2 -21 7 -25 7 -3 8 -1 4 5 -4
7 -1 12 9 12 13 0 14 -4 5 -21 -6 -11 -18 -23 -26 -26 -8 -3 -14 -9 -14 -14 0
-19 16 -7 44 34 16 23 26 39 21 34 -5 -4 -17 0 -27 10 -10 9 -18 14 -19 12z"/>
<path d="M81 2678 c-10 -30 -9 -31 4 -14 8 11 15 26 15 33 0 22 -8 14 -19 -19z"/>
<path d="M3858 2675 c-7 -33 3 -90 12 -75 5 8 8 -3 8 -25 0 -21 5 -41 12 -45
9 -6 9 -9 -1 -13 -10 -4 -9 -6 3 -6 29 -2 77 48 84 86 5 28 2 39 -14 56 -20
19 -22 19 -46 4 -18 -12 -27 -14 -32 -5 -4 6 -3 8 3 5 6 -4 16 -1 21 6 9 10 4
16 -18 24 -25 10 -29 8 -32 -12z"/>
<path d="M45 2640 c-3 -5 -1 -10 4 -10 6 0 11 5 11 10 0 6 -2 10 -4 10 -3 0
-8 -4 -11 -10z"/>
<path d="M3796 2623 c9 -38 14 -42 14 -10 0 14 -5 29 -10 32 -7 4 -8 -3 -4
-22z"/>
<path d="M57 2623 c-13 -3 -17 -11 -14 -24 3 -10 1 -19 -4 -19 -5 0 -9 -4 -9
-10 0 -5 7 -10 16 -10 14 0 15 -2 3 -17 -13 -15 -12 -15 8 -5 12 7 23 17 26
24 3 10 7 10 20 -1 14 -11 17 -11 18 0 0 8 2 22 4 31 3 16 1 16 -21 2 -22 -15
-24 -15 -30 1 -4 10 -1 21 7 26 15 9 6 10 -24 2z"/>
<path d="M210 2593 c0 -16 -29 -24 -50 -13 -14 7 -19 5 -23 -10 -3 -11 -1 -20
4 -20 5 0 9 5 9 10 0 6 5 10 10 10 6 0 10 -7 8 -16 -2 -10 4 -18 14 -19 10 -2
17 0 16 3 -1 4 4 18 11 30 7 13 10 26 7 30 -3 3 -6 1 -6 -5z"/>
<path d="M3065 2434 c9 -9 19 -13 23 -10 3 4 0 11 -8 16 -24 15 -33 11 -15 -6z"/>
<path d="M15 2379 c-11 -17 1 -21 15 -4 8 9 8 15 2 15 -6 0 -14 -5 -17 -11z"/>
<path d="M55 2370 c3 -5 8 -10 11 -10 2 0 4 5 4 10 0 6 -5 10 -11 10 -5 0 -7
-4 -4 -10z"/>
<path d="M4086 2304 c-3 -9 -11 -12 -18 -8 -9 5 -8 2 1 -10 13 -15 15 -16 23
-1 5 8 15 12 21 8 7 -4 6 0 -2 10 -17 21 -17 21 -25 1z"/>
<path d="M4144 2275 c-10 -8 -14 -15 -8 -15 6 0 17 7 24 15 16 19 9 19 -16 0z"/>
<path d="M3864 2261 c3 -5 -5 -12 -18 -15 -13 -3 -29 -18 -36 -35 -15 -36 -6
-55 19 -41 10 5 21 6 25 3 3 -3 14 3 24 15 11 12 22 19 25 16 9 -9 48 16 42
27 -4 6 -13 5 -25 -1 -27 -15 -32 -12 -25 11 5 15 4 19 -4 15 -6 -4 -11 -2
-11 3 0 6 -5 11 -11 11 -5 0 -8 -4 -5 -9z"/>
<path d="M4026 2235 c-18 -18 -21 -35 -6 -35 11 0 34 39 27 46 -3 3 -12 -2
-21 -11z"/>
<path d="M3911 2166 c-14 -15 -19 -26 -12 -30 13 -9 60 24 61 42 0 20 -25 14
-49 -12z"/>
<path d="M23 2068 c3 -9 1 -18 -6 -21 -6 -2 -4 -6 6 -10 23 -9 28 5 10 28 -12
15 -14 16 -10 3z"/>
<path d="M4376 2041 c-4 -7 -5 -15 -2 -18 9 -9 19 4 14 18 -4 11 -6 11 -12 0z"/>
<path d="M2170 1941 c0 -6 4 -13 10 -16 6 -3 7 1 4 9 -7 18 -14 21 -14 7z"/>
<path d="M3830 1923 c-16 -6 -30 -23 -30 -36 0 -5 4 -6 9 -3 5 4 11 1 13 -5 6
-18 48 12 48 33 0 18 -12 21 -40 11z"/>
<path d="M4137 1869 c7 -7 15 -10 18 -7 3 3 -2 9 -12 12 -14 6 -15 5 -6 -5z"/>
<path d="M3703 1855 c0 -8 4 -12 9 -9 5 3 6 10 3 15 -9 13 -12 11 -12 -6z"/>
<path d="M4356 1843 c-6 -14 -5 -15 5 -6 7 7 10 15 7 18 -3 3 -9 -2 -12 -12z"/>
<path d="M4295 1840 c-3 -5 3 -10 14 -10 11 0 23 5 26 10 3 6 -3 10 -14 10
-11 0 -23 -4 -26 -10z"/>
<path d="M4210 1831 c0 -5 -10 -11 -22 -14 -12 -4 -20 -9 -16 -12 7 -7 58 16
58 27 0 4 -4 8 -10 8 -5 0 -10 -4 -10 -9z"/>
<path d="M4242 1828 c-15 -15 -16 -28 -2 -28 6 0 10 6 10 14 0 8 8 17 18 19
13 4 13 5 2 6 -9 0 -21 -4 -28 -11z"/>
<path d="M4295 1800 c-3 -5 -2 -10 4 -10 5 0 13 5 16 10 3 6 2 10 -4 10 -5 0
-13 -4 -16 -10z"/>
<path d="M4343 1785 c0 -8 4 -15 9 -15 4 0 8 7 8 15 0 8 -4 15 -8 15 -5 0 -9
-7 -9 -15z"/>
<path d="M4183 1778 c-13 -6 -23 -17 -23 -24 0 -9 8 -7 25 8 35 30 34 34 -2
16z"/>
<path d="M4270 1770 c0 -5 -9 -10 -19 -10 -10 0 -27 -8 -38 -17 -10 -10 -14
-15 -9 -10 6 4 20 7 32 7 28 0 79 39 52 40 -10 0 -18 -4 -18 -10z"/>
<path d="M3653 1753 c9 -2 23 -2 30 0 6 3 -1 5 -18 5 -16 0 -22 -2 -12 -5z"/>
<path d="M4130 1751 c0 -5 6 -14 14 -20 12 -10 13 -8 9 8 -5 21 -23 30 -23 12z"/>
<path d="M4336 1744 c-4 -9 -4 -19 -1 -22 2 -3 7 3 11 12 4 9 4 19 1 22 -2 3
-7 -3 -11 -12z"/>
<path d="M4110 1699 c0 -5 5 -7 10 -4 6 3 10 8 10 11 0 2 -4 4 -10 4 -5 0 -10
-5 -10 -11z"/>
<path d="M4166 1695 c-11 -8 -15 -15 -9 -15 6 0 16 7 23 15 16 19 11 19 -14 0z"/>
<path d="M3620 1690 c19 -13 30 -13 30 0 0 6 -10 10 -22 10 -19 0 -20 -2 -8
-10z"/>
<path d="M2258 1673 c7 -3 16 -2 19 1 4 3 -2 6 -13 5 -11 0 -14 -3 -6 -6z"/>
<path d="M3603 1665 c0 -11 4 -12 14 -4 7 6 13 13 13 15 0 2 -6 4 -13 4 -8 0
-14 -7 -14 -15z"/>
<path d="M2310 1620 c0 -5 7 -7 15 -4 8 4 15 8 15 10 0 2 -7 4 -15 4 -8 0 -15
-4 -15 -10z"/>
<path d="M203 1573 c18 -20 17 -21 -15 -48 -18 -14 -24 -22 -13 -16 11 6 30
18 42 28 l22 18 -27 19 -27 20 18 -21z"/>
<path d="M3516 1544 c-9 -8 -13 -21 -9 -27 4 -7 8 -6 11 3 2 8 11 21 20 28 9
6 11 12 5 12 -7 0 -19 -7 -27 -16z"/>
<path d="M3131 1506 c-9 -10 -9 -16 -1 -21 6 -4 14 -4 17 -1 4 3 1 6 -7 6 -10
0 -10 3 0 15 7 8 10 15 7 15 -2 0 -10 -6 -16 -14z"/>
<path d="M3473 1489 c-1 -16 2 -29 8 -29 6 0 7 -6 3 -12 -5 -9 -2 -9 9 1 19
15 23 26 5 15 -7 -5 -9 0 -6 14 3 12 1 26 -6 31 -8 6 -12 1 -13 -20z"/>
<path d="M130 1490 c-9 -6 -10 -10 -3 -10 6 0 15 5 18 10 8 12 4 12 -15 0z"/>
<path d="M3120 1460 c0 -5 5 -10 10 -10 6 0 10 5 10 10 0 6 -4 10 -10 10 -5 0
-10 -4 -10 -10z"/>
<path d="M138 1453 c6 -2 18 -2 25 0 6 3 1 5 -13 5 -14 0 -19 -2 -12 -5z"/>
<path d="M3450 1445 c0 -7 -8 -19 -17 -24 -16 -9 -16 -10 5 -11 12 0 22 4 22
9 0 5 3 16 6 25 3 9 1 16 -5 16 -6 0 -11 -7 -11 -15z"/>
<path d="M307 1437 c-3 -8 1 -14 8 -14 7 0 11 6 8 14 -3 7 -6 13 -8 13 -2 0
-5 -6 -8 -13z"/>
<path d="M236 1415 c-9 -26 -7 -32 5 -12 6 10 9 21 6 23 -2 3 -7 -2 -11 -11z"/>
<path d="M296 1393 c-6 -14 -5 -15 5 -6 7 7 10 15 7 18 -3 3 -9 -2 -12 -12z"/>
<path d="M3477 1381 c-10 -14 -10 -14 5 -3 13 10 17 10 20 0 3 -8 6 -7 10 3 8
21 -19 20 -35 0z"/>
<path d="M3174 1346 c0 -14 5 -21 10 -16 5 5 16 6 25 3 9 -4 6 3 -8 15 -30 27
-29 27 -27 -2z"/>
<path d="M2355 1350 c27 -12 43 -12 25 0 -8 5 -22 9 -30 9 -10 0 -8 -3 5 -9z"/>
<path d="M296 1335 c-9 -26 -7 -32 5 -12 6 10 9 21 6 23 -2 3 -7 -2 -11 -11z"/>
<path d="M2320 1290 c0 -6 7 -10 15 -10 8 0 15 2 15 4 0 2 -7 6 -15 10 -8 3
-15 1 -15 -4z"/>
<path d="M323 1160 c0 -25 2 -35 4 -22 2 12 2 32 0 45 -2 12 -4 2 -4 -23z"/>
<path d="M267 1164 c-9 -9 16 -44 31 -44 18 0 9 25 -9 25 -8 1 -13 6 -11 13 2
13 -1 15 -11 6z"/>
<path d="M2475 1151 c-3 -5 -1 -12 5 -16 5 -3 10 1 10 9 0 18 -6 21 -15 7z"/>
<path d="M346 1141 c-4 -5 -2 -12 3 -15 5 -4 12 -2 15 3 4 5 2 12 -3 15 -5 4
-12 2 -15 -3z"/>
<path d="M2510 1135 c0 -8 4 -15 10 -15 5 0 7 7 4 15 -4 8 -8 15 -10 15 -2 0
-4 -7 -4 -15z"/>
<path d="M390 1125 c-11 -13 -10 -14 4 -9 9 3 16 10 16 15 0 13 -6 11 -20 -6z"/>
<path d="M423 1100 c0 -25 2 -35 4 -22 2 12 2 32 0 45 -2 12 -4 2 -4 -23z"/>
<path d="M331 1094 c0 -11 3 -14 6 -6 3 7 2 16 -1 19 -3 4 -6 -2 -5 -13z"/>
<path d="M350 1095 c0 -9 5 -15 11 -13 6 2 11 8 11 13 0 5 -5 11 -11 13 -6 2
-11 -4 -11 -13z"/>
<path d="M398 1090 c-7 -24 -3 -38 8 -28 3 4 4 17 2 30 l-3 23 -7 -25z"/>
<path d="M2402 1014 c2 -16 7 -20 22 -16 15 4 17 7 6 10 -8 3 -18 10 -22 16
-4 6 -6 1 -6 -10z"/>
<path d="M455 1009 c-4 -6 -5 -12 -2 -15 2 -3 7 2 10 11 7 17 1 20 -8 4z"/>
<path d="M2010 925 c13 -14 30 -25 38 -25 7 0 0 11 -16 25 -17 14 -33 25 -38
25 -4 0 3 -11 16 -25z"/>
<path d="M2076 892 c-3 -5 10 -14 28 -20 18 -7 41 -21 51 -32 23 -26 35 -25
35 1 0 16 -4 19 -17 15 -10 -4 -14 -4 -10 0 4 5 -9 16 -29 26 -42 20 -51 22
-58 10z"/>
<path d="M2255 890 c-3 -5 -2 -10 4 -10 5 0 13 5 16 10 3 6 2 10 -4 10 -5 0
-13 -4 -16 -10z"/>
<path d="M2207 843 c-4 -3 -7 -11 -7 -17 0 -6 5 -5 12 2 6 6 9 14 7 17 -3 3
-9 2 -12 -2z"/>
<path d="M2215 530 c3 -5 8 -10 11 -10 2 0 4 5 4 10 0 6 -5 10 -11 10 -5 0 -7
-4 -4 -10z"/>
<path d="M1928 453 c7 -3 16 -2 19 1 4 3 -2 6 -13 5 -11 0 -14 -3 -6 -6z"/>
</g>
</svg>
