<?xml version="1.0" standalone="no"?>
<!DOCTYPE svg PUBLIC "-//W3C//DTD SVG 20010904//EN"
 "http://www.w3.org/TR/2001/REC-SVG-20010904/DTD/svg10.dtd">
<svg version="1.0" xmlns="http://www.w3.org/2000/svg"
 width="300.000000pt" height="300.000000pt" viewBox="0 0 300.000000 300.000000"
 preserveAspectRatio="xMidYMid meet">
<metadata>
Created by potrace 1.14, written by Peter Selinger 2001-2017
</metadata>
<g transform="translate(0.000000,300.000000) scale(0.100000,-0.100000)"
fill="#000000" stroke="none">
<path d="M1335 2990 c-438 -48 -839 -292 -1080 -656 -114 -172 -186 -347 -232
-564 -24 -115 -24 -384 1 -525 61 -348 245 -668 511 -890 119 -100 346 -237
358 -217 3 4 4 27 2 52 -3 45 -3 45 10 15 9 -20 10 -37 4 -54 -11 -27 -11 -26
18 -35 19 -6 22 -4 17 11 -4 15 -3 14 7 -2 17 -27 24 -31 99 -55 151 -48 257
-63 440 -64 108 0 204 5 250 13 119 21 275 68 363 109 l82 37 -55 6 c-30 3
-143 17 -250 32 -107 14 -296 38 -420 53 -124 14 -263 33 -308 41 -73 14 -83
18 -79 34 3 11 1 17 -4 13 -12 -7 -11 -1 2 33 6 15 12 35 14 43 9 34 37 105
44 110 4 3 12 21 18 40 l10 35 18 -42 c9 -24 21 -40 27 -37 5 3 6 13 2 23 -3
9 -7 23 -9 31 -1 8 -5 24 -8 36 -5 12 -1 33 8 50 8 16 15 35 15 42 0 6 4 12 9
12 6 0 15 27 22 60 10 52 14 60 30 55 15 -5 19 -1 19 17 0 13 17 38 42 63 37
35 44 49 58 115 13 66 18 75 37 74 12 0 20 3 17 7 -6 11 38 7 54 -4 8 -6 12
-6 12 2 0 6 11 11 24 11 13 0 39 7 59 15 19 8 38 11 42 7 5 -4 5 -2 2 4 -8 14
27 56 38 46 5 -4 5 -2 2 5 -10 17 10 64 39 91 13 13 22 27 20 31 -3 4 0 8 7 8
7 0 17 2 22 3 24 6 34 -2 40 -30 4 -17 10 -28 14 -25 5 2 16 -13 25 -33 17
-38 51 -78 97 -117 13 -10 25 -18 27 -17 1 1 18 -4 37 -12 19 -8 47 -17 62
-19 81 -13 164 -43 258 -92 58 -30 112 -55 121 -55 22 0 181 -87 229 -126 23
-17 50 -50 60 -72 11 -22 23 -38 27 -36 17 11 102 180 137 276 82 217 113 440
92 654 -38 376 -176 671 -435 929 -222 221 -452 348 -745 409 -140 30 -341 41
-476 26z m440 -272 c6 -2 9 -7 7 -12 -2 -5 4 -6 13 -2 9 3 14 2 11 -3 -6 -10
18 -34 26 -26 2 3 5 -2 5 -9 0 -12 -6 -11 -26 4 -44 32 -99 83 -71 66 14 -8
30 -16 35 -18z m-235 -50 c19 -32 20 -32 21 -8 1 23 2 22 11 -7 10 -30 12 -32
25 -15 13 16 14 15 10 -6 -3 -14 -1 -20 6 -15 6 4 8 -2 4 -16 -3 -13 -3 -20 1
-17 3 4 12 -4 19 -16 l12 -23 1 27 c0 15 9 33 20 41 14 10 18 20 14 33 -16 47
41 -50 77 -131 7 -16 15 -33 17 -37 2 -5 -1 -8 -7 -8 -5 0 -15 16 -22 35 -7
19 -17 35 -21 35 -4 0 -8 6 -8 14 0 8 -5 27 -11 43 l-12 28 -6 -25 c-4 -14 -2
-36 5 -49 7 -13 10 -30 7 -39 -4 -9 -2 -13 3 -9 6 3 18 -7 27 -22 16 -28 16
-29 -3 -34 -23 -6 -25 -32 -5 -67 16 -28 20 -19 5 11 -6 11 -7 19 -1 19 5 0
11 -11 15 -23 3 -13 19 -40 34 -60 16 -20 35 -50 42 -67 7 -16 16 -28 20 -25
20 12 57 -89 66 -185 6 -57 21 -118 34 -135 4 -5 10 -21 14 -35 5 -22 4 -22
-7 3 -15 31 -12 40 -77 -203 -8 -32 -14 -36 -44 -38 -26 -2 -38 3 -45 16 -6
11 -7 22 -4 26 3 3 1 6 -6 6 -7 0 -19 16 -27 35 -8 19 -20 35 -26 35 -9 0 -9
-3 0 -12 15 -15 16 -31 1 -22 -7 4 -46 8 -88 9 -72 2 -130 20 -146 44 -6 10
-52 36 -95 53 l-25 9 23 -23 c41 -44 26 -64 -58 -75 -19 -2 -52 -13 -72 -23
-29 -15 -44 -17 -69 -10 l-32 9 23 -24 c13 -14 39 -33 58 -43 20 -10 37 -23
39 -29 5 -15 -115 11 -133 29 -17 17 -19 61 -4 117 6 24 9 49 7 55 -3 6 -35
-20 -73 -58 -62 -63 -69 -67 -81 -50 -33 45 -43 175 -20 263 12 43 13 45 52
46 152 4 157 5 151 21 -3 8 -2 13 3 10 5 -3 8 10 7 28 0 19 -4 32 -7 30 -4 -2
-9 10 -12 26 -4 19 -17 35 -36 44 -37 20 -45 32 -25 40 8 3 12 2 9 -4 -10 -17
7 -11 22 8 8 9 12 11 8 5 -3 -7 -4 -13 -1 -13 3 0 12 14 18 30 l13 31 33 -31
c19 -17 38 -28 43 -25 5 4 9 -8 9 -24 0 -17 5 -31 10 -31 6 0 10 -15 10 -34 0
-19 4 -37 9 -40 5 -3 7 -23 5 -44 -3 -20 -1 -43 4 -51 12 -17 50 -6 54 17 2
13 14 16 58 14 30 -1 49 1 43 4 -7 3 -13 11 -13 16 0 6 3 9 6 5 4 -3 13 1 22
10 14 14 16 13 24 -8 6 -15 5 -25 -4 -30 -7 -4 7 -8 30 -7 24 0 46 -3 50 -6
13 -13 -24 -26 -78 -27 -43 -1 -49 -3 -30 -9 58 -18 115 -11 158 20 23 17 48
30 56 30 8 0 21 6 28 13 7 7 21 18 31 24 16 8 17 12 4 24 -8 8 -21 28 -29 44
-14 27 -14 31 1 43 9 7 11 11 5 8 -12 -6 -40 72 -30 82 3 3 6 -3 6 -14 0 -16
2 -17 10 -4 8 11 9 7 5 -15 -3 -16 -2 -24 1 -18 4 9 11 10 25 3 23 -13 25 -1
4 26 -21 28 -18 40 5 19 11 -10 20 -25 20 -34 0 -10 3 -12 10 -5 8 8 -1 29
-29 70 -22 32 -37 62 -35 66 3 5 0 8 -5 8 -6 0 -11 -6 -11 -13 0 -20 -29 -16
-36 5 -3 10 -9 18 -13 18 -12 0 -28 43 -45 117 -7 33 -21 74 -29 90 -52 93
-72 154 -27 81z m-280 2 c0 -5 -2 -10 -4 -10 -3 0 -8 5 -11 10 -3 6 -1 10 4
10 6 0 11 -4 11 -10z m70 -1 c0 -5 -5 -7 -12 -3 -8 5 -9 2 -5 -11 4 -9 2 -25
-5 -33 -11 -13 -11 -14 1 -7 11 6 12 2 7 -21 -4 -16 -13 -36 -20 -44 -6 -8
-11 -30 -10 -47 2 -26 0 -30 -10 -20 -7 7 -15 19 -19 27 -4 12 -6 12 -6 -2 -1
-9 6 -23 14 -32 17 -16 21 -71 5 -61 -6 4 -8 11 -5 16 4 5 3 14 -1 21 -5 8
-10 6 -15 -8 -4 -11 -1 -26 8 -36 8 -9 13 -27 10 -40 -4 -22 -4 -21 -6 3 0 15
-9 33 -18 40 -14 12 -16 12 -11 -2 3 -9 2 -22 -2 -29 -5 -8 -11 9 -15 46 -9
87 -14 97 -12 27 1 -33 -1 -59 -5 -56 -5 2 -8 -2 -9 -9 0 -7 -5 -2 -10 11 -5
14 -7 37 -4 53 4 15 1 35 -5 45 -9 14 -10 0 -7 -62 4 -64 2 -74 -6 -47 -11 35
-23 42 -30 15 -2 -10 -3 1 -3 24 1 22 4 39 9 36 4 -2 7 8 7 24 0 22 -2 25 -10
13 -6 -9 -10 -10 -10 -3 0 6 -3 20 -6 30 -5 15 -4 16 6 3 9 -12 11 -9 6 15
l-5 30 13 -28 12 -27 18 55 c9 30 22 55 28 55 6 0 7 -7 3 -17 -16 -40 -24 -88
-15 -97 7 -7 10 -3 10 10 0 31 30 114 42 114 5 0 6 5 2 12 -4 6 -3 8 4 4 8 -5
8 -15 0 -37 -17 -48 -3 -44 21 6 26 56 33 58 15 4 -10 -29 -11 -45 -4 -57 9
-14 10 -13 4 7 -4 18 -3 22 7 16 9 -6 11 -3 6 9 -7 19 18 76 33 76 6 0 10 -5
10 -11z m-129 -16 c13 -16 12 -17 -3 -4 -14 11 -18 11 -18 1 0 -8 -3 -11 -6
-7 -5 5 3 27 10 27 2 0 10 -8 17 -17z m194 -47 c0 -15 -4 -21 -9 -16 -5 5 -6
16 -3 24 9 22 12 20 12 -8z m71 -46 c4 -11 10 -6 19 15 l13 30 2 -30 c3 -61 9
-85 33 -134 14 -27 24 -61 23 -75 -2 -14 0 -26 4 -26 4 0 11 -7 14 -16 4 -10
2 -13 -7 -8 -6 4 -3 -2 7 -14 11 -12 16 -25 13 -29 -4 -3 -2 -12 4 -20 9 -10
8 -13 -1 -13 -9 0 -9 -4 -2 -12 8 -10 -12 -13 -94 -13 -76 0 -104 3 -104 13 0
6 -4 12 -10 12 -5 0 -10 -4 -10 -10 0 -18 -15 -10 -26 14 -12 26 -8 64 22 204
9 40 19 71 22 67 3 -3 12 9 19 26 9 22 18 29 28 25 9 -3 14 -2 10 3 -3 5 -2
17 2 28 7 17 8 17 11 -2 2 -11 6 -27 8 -35z m-363 -15 c-10 -29 -12 -50 -6
-52 11 -4 5 -61 -8 -68 -4 -3 -6 12 -4 32 3 21 -2 9 -10 -26 -18 -76 -25 -87
-26 -40 -1 32 -2 32 -9 9 -10 -30 -12 -5 -3 28 4 15 8 19 13 12 10 -16 32 74
23 95 -7 19 -21 -9 -53 -105 -10 -30 -19 -47 -19 -38 -1 9 4 29 10 44 12 34 3
86 -12 63 -10 -16 -12 -8 -2 16 5 15 8 14 19 -6 9 -17 13 -19 14 -8 0 9 7 31
16 49 l17 33 13 -29 c7 -16 13 -24 13 -17 2 20 21 66 26 61 3 -2 -3 -27 -12
-53z m222 -39 c-25 -77 -33 -107 -34 -135 -1 -8 -4 -12 -7 -8 -10 9 17 147 28
147 7 0 6 5 -1 14 -8 10 -9 16 -1 21 5 3 10 0 11 -7 0 -7 5 2 10 21 6 18 12
31 15 29 2 -3 -7 -40 -21 -82z m260 -11 c5 -31 4 -36 -5 -23 -5 9 -12 29 -14
45 -3 15 -7 39 -10 53 -5 21 -4 20 8 -5 8 -17 17 -48 21 -70z m-569 53 c4 -7
3 -8 -4 -4 -14 8 -44 -58 -36 -79 4 -8 -1 -18 -10 -21 -9 -3 -13 -10 -10 -15
3 -5 10 -7 15 -4 5 3 6 -1 2 -10 -4 -12 -8 -13 -13 -5 -5 8 -9 4 -13 -11 -3
-13 -2 -28 3 -34 6 -7 6 -23 1 -41 -9 -28 -9 -28 -11 11 -1 34 -3 37 -10 18
-16 -40 -18 -25 -4 34 16 69 32 109 56 146 22 31 24 32 34 15z m231 -190 c-3
-8 -6 -5 -6 6 -1 11 2 17 5 13 3 -3 4 -12 1 -19z m42 -40 c0 -27 -2 -29 -8
-13 -5 11 -6 26 -4 33 8 21 13 13 12 -20z m406 -7 c3 -5 1 -12 -5 -16 -5 -3
-10 1 -10 9 0 18 6 21 15 7z m-397 -86 c-3 -3 -9 2 -12 12 -6 14 -5 15 5 6 7
-7 10 -15 7 -18z m285 -67 c-2 -5 3 -8 12 -8 9 0 13 -4 10 -10 -7 -11 -95 -14
-95 -4 0 4 7 12 15 18 17 12 66 15 58 4z m-518 -126 c-11 -11 -34 8 -28 24 6
15 7 15 20 -1 7 -10 11 -21 8 -23z m1010 -69 c-2 -10 -4 -21 -4 -24 -1 -4 -8
-9 -16 -13 -14 -5 -13 -2 0 24 17 34 25 38 20 13z m-98 -25 c-3 -8 -6 -5 -6 6
-1 11 2 17 5 13 3 -3 4 -12 1 -19z m118 -10 c-11 -35 -55 -89 -67 -82 -6 4
-14 0 -19 -7 -12 -19 -11 -29 2 -29 5 0 7 5 4 10 -3 6 1 10 9 10 18 0 21 -16
6 -25 -8 -5 -7 -11 1 -21 9 -11 8 -14 -4 -14 -9 0 -20 7 -25 16 -5 9 -13 16
-18 15 -5 0 -10 11 -11 25 -1 13 2 22 8 19 5 -4 8 6 7 22 -1 16 1 34 6 41 11
18 34 14 32 -5 -2 -29 27 -20 49 14 24 38 29 41 20 11z m-137 -115 c-7 -9 -8
-17 -2 -21 12 -8 12 -27 1 -39 -5 -4 -8 -3 -7 2 5 24 -1 34 -17 28 -15 -5 -16
-3 -5 8 6 7 12 24 12 37 0 21 2 23 15 12 12 -10 13 -16 3 -27z m-878 -179 c0
10 5 14 11 11 6 -4 8 -23 4 -49 l-6 -41 20 23 c11 12 21 28 24 35 3 7 13 1 28
-17 23 -29 24 -29 29 -8 5 21 7 21 33 7 35 -18 142 -26 157 -11 14 14 32 -6
24 -28 -4 -11 -14 -16 -25 -13 -10 3 -20 -2 -23 -9 -4 -10 -18 -14 -40 -12
-20 1 -39 -2 -43 -6 -4 -4 20 -6 55 -4 34 1 62 1 62 -2 0 -24 -97 -40 -152
-25 -31 8 -35 1 -13 -22 8 -8 13 -18 10 -23 -8 -13 15 -17 105 -19 47 -1 95
-5 108 -8 19 -4 33 5 72 47 27 29 47 57 44 62 -3 4 0 8 5 8 6 0 10 3 9 8 -1 4
7 26 16 50 18 42 36 56 36 27 0 -18 20 -20 20 -2 0 7 4 6 10 -4 21 -36 -33
-152 -94 -199 -10 -8 -38 -32 -61 -52 -61 -54 -118 -76 -187 -73 -70 4 -90 18
-148 104 -45 64 -140 245 -140 264 0 6 11 0 25 -13 21 -20 25 -21 25 -6z m370
-59 c0 -26 -14 -33 -25 -15 -9 14 1 40 15 40 5 0 10 -11 10 -25z m-823 -697
c-3 -8 -6 -5 -6 6 -1 11 2 17 5 13 3 -3 4 -12 1 -19z m29 -10 c-4 -13 -9 -36
-11 -53 -5 -38 -31 -101 -46 -111 -7 -4 -8 -9 -1 -13 7 -4 1 -21 -14 -46 -13
-22 -24 -33 -24 -25 0 9 7 26 16 38 23 34 2 26 -26 -10 -14 -17 -31 -38 -38
-47 -7 -9 -3 4 8 29 l21 45 -22 -25 c-18 -20 -21 -21 -15 -5 5 11 14 40 21 65
16 62 45 121 55 115 5 -3 16 5 24 17 l16 22 1 -29 1 -30 7 31 c8 33 19 54 28
54 3 0 2 -10 -1 -22z m-106 -288 c0 8 2 11 5 8 3 -3 2 -13 -1 -22 -5 -14 -9
-15 -15 -4 -6 9 -9 6 -10 -12 0 -23 -1 -23 -9 -5 -8 18 -9 18 -9 2 -1 -11 -5
-15 -13 -11 -8 5 -5 13 10 24 12 10 18 21 14 26 -4 5 1 2 11 -5 14 -11 17 -11
17 -1z m380 -250 c0 -13 -1 -13 -10 0 -5 8 -10 22 -10 30 0 13 1 13 10 0 5 -8
10 -22 10 -30z m27 -62 c-3 -8 -6 -5 -6 6 -1 11 2 17 5 13 3 -3 4 -12 1 -19z
m-18 -98 c0 -23 -1 -23 -9 -5 -5 11 -8 43 -8 70 l1 50 8 -45 c4 -25 8 -56 8
-70z"/>
<path d="M1665 2599 c-4 -6 -5 -12 -2 -15 2 -3 7 2 10 11 7 17 1 20 -8 4z"/>
<path d="M1756 1717 c3 -10 9 -15 12 -12 3 3 0 11 -7 18 -10 9 -11 8 -5 -6z"/>
<path d="M1602 1549 c-11 -11 -19 -31 -19 -45 0 -32 3 -31 23 14 10 20 19 40
21 45 8 14 -6 7 -25 -14z"/>
<path d="M1776 1317 c3 -10 9 -15 12 -12 3 3 0 11 -7 18 -10 9 -11 8 -5 -6z"/>
</g>
</svg>
